<svg width="360" height="113" viewBox="0 0 360 113" fill="none" xmlns="http://www.w3.org/2000/svg">
<path d="M322.217 48.0708C322.93 48.0708 323.537 48.3369 324.024 48.8618H324.023C324.509 49.3496 324.752 49.9527 324.752 50.6587C324.752 50.9925 324.697 51.3107 324.584 51.6108L324.581 51.6177L310.412 85.6655L310.409 85.6724C310.191 86.145 309.898 86.5488 309.53 86.8794C309.141 87.2294 308.64 87.3979 308.048 87.3979C307.371 87.3979 306.783 87.1508 306.297 86.6646L306.291 86.6587V86.6577C305.842 86.1705 305.615 85.5852 305.615 84.9136C305.615 84.5802 305.672 84.2754 305.788 84.0044L309.129 75.4165L299.402 51.7202L299.396 51.7075L299.394 51.6929C299.362 51.5656 299.313 51.4182 299.246 51.2515L299.239 51.2349L299.235 51.2163C299.198 51.031 299.18 50.8447 299.18 50.6587C299.18 49.9503 299.425 49.3446 299.913 48.856C300.4 48.3347 301.005 48.0708 301.716 48.0708C302.238 48.0709 302.71 48.2208 303.124 48.52L303.285 48.6343C303.595 48.8713 303.836 49.1534 304.003 49.48L304.08 49.647L304.081 49.6499L311.89 69.02L319.852 49.7515L319.853 49.7495H319.854C320.072 49.2407 320.366 48.8307 320.742 48.5298L320.75 48.5239C321.168 48.2199 321.66 48.0708 322.217 48.0708ZM307.611 87.1567C307.679 87.1694 307.748 87.1805 307.818 87.187L308.048 87.1978C308.117 87.1977 308.185 87.1949 308.251 87.1899C308.185 87.1948 308.117 87.1968 308.048 87.1968C307.897 87.1968 307.752 87.183 307.611 87.1567ZM307.401 87.106C307.448 87.1197 307.496 87.1305 307.544 87.1411C307.496 87.1305 307.448 87.1197 307.401 87.106ZM307.199 87.0347C307.249 87.0549 307.299 87.0729 307.351 87.0894C307.299 87.0729 307.249 87.0549 307.199 87.0347ZM307.008 86.9458C307.054 86.9702 307.101 86.9924 307.148 87.0132C307.101 86.9924 307.054 86.9702 307.008 86.9458ZM306.821 86.8354C306.867 86.866 306.914 86.8947 306.962 86.9214C306.914 86.8947 306.867 86.866 306.821 86.8354ZM306.643 86.7036C306.685 86.7382 306.728 86.7713 306.772 86.8022C306.728 86.7713 306.685 86.7382 306.643 86.7036ZM306.438 86.522V86.5229C306.492 86.5767 306.548 86.626 306.604 86.6733C306.548 86.6259 306.492 86.5758 306.438 86.522ZM309.789 86.3071C309.804 86.2885 309.818 86.2695 309.832 86.2505C309.818 86.2695 309.804 86.2885 309.789 86.3071ZM309.976 86.0464C309.988 86.0274 310 86.0081 310.012 85.9888C310 86.0081 309.988 86.0274 309.976 86.0464ZM191.355 47.811C193.906 47.811 196.006 48.3179 197.639 49.3472C199.259 50.3686 200.462 51.6759 201.241 53.269C202.015 54.8528 202.403 56.5093 202.403 58.2358V72.9243C202.403 73.6375 202.138 74.2446 201.613 74.7319L201.612 74.731C201.125 75.2161 200.521 75.4595 199.815 75.4595C199.107 75.4593 198.502 75.2146 198.014 74.7261C197.525 74.2375 197.28 73.6326 197.28 72.9243V72.0532C196.374 72.9108 195.226 73.7094 193.838 74.4497C192.243 75.3003 190.2 75.7192 187.723 75.7192C186.206 75.7192 184.775 75.4019 183.433 74.7661L183.432 74.7651C182.121 74.1277 181.056 73.2227 180.24 72.0522L180.236 72.0464C179.451 70.8328 179.063 69.3921 179.062 67.7339C179.063 65.3732 179.939 63.4116 181.684 61.8618L182.044 61.5571C184.068 59.9243 187.132 59.1255 191.2 59.1255H197.28V58.9106C197.28 56.6188 196.715 55.0463 195.638 54.1323L195.636 54.1304C194.546 53.1726 192.855 52.6743 190.525 52.6743C189.084 52.6743 187.821 52.8126 186.733 53.0845L186.729 53.0854C185.661 53.3264 184.646 53.6012 183.684 53.9106L183.671 53.9146C183.387 53.9855 183.144 54.0239 182.947 54.0239C182.373 54.0237 181.873 53.8113 181.457 53.395C181.038 52.9758 180.827 52.4569 180.827 51.8521C180.827 51.352 180.948 50.9127 181.199 50.5454C181.45 50.1789 181.821 49.8976 182.298 49.6958C183.521 49.1718 184.864 48.7355 186.327 48.3872C187.833 48.0024 189.51 47.8111 191.355 47.811ZM283.82 47.811C286.515 47.8111 288.805 48.4413 290.678 49.7124C292.541 50.9429 293.95 52.5626 294.899 54.5669L295.078 54.9438C295.942 56.8402 296.373 58.8901 296.373 61.0903C296.373 61.796 296.129 62.3986 295.645 62.8862C295.185 63.3845 294.557 63.6263 293.786 63.6265H276.42C276.721 65.7997 277.573 67.549 278.974 68.8853H278.975C280.413 70.2232 282.503 70.9076 285.273 70.9077C286.819 70.9077 288.117 70.7697 289.168 70.4985C290.227 70.1906 291.235 69.7978 292.191 69.3198C292.499 69.1661 292.842 69.0913 293.215 69.0913C293.819 69.0914 294.352 69.3007 294.804 69.7144C295.262 70.1346 295.491 70.6738 295.491 71.3149C295.491 71.7784 295.335 72.2028 295.032 72.5815L295.031 72.5806C294.771 72.9149 294.439 73.1925 294.037 73.4116L294.036 73.4106C292.883 74.074 291.627 74.6333 290.268 75.0864L290.265 75.0874C288.922 75.5113 287.116 75.7192 284.858 75.7192C280.598 75.7192 277.238 74.5132 274.804 72.0796L274.802 72.0776C272.403 69.6083 271.216 66.1611 271.216 61.7651C271.216 59.3871 271.654 57.146 272.529 55.0444C273.408 52.9001 274.781 51.1575 276.646 49.8208C278.521 48.4759 280.918 47.8111 283.82 47.811ZM188.51 75.5024C188.532 75.5016 188.553 75.5014 188.575 75.5005C188.553 75.5014 188.532 75.5016 188.51 75.5024ZM188.884 75.4849C188.921 75.4827 188.958 75.4804 188.995 75.478C188.958 75.4804 188.921 75.4827 188.884 75.4849ZM189.203 75.4624C189.283 75.4563 189.362 75.451 189.44 75.4438C189.362 75.451 189.283 75.4563 189.203 75.4624ZM144.702 38.5728C145.374 38.5728 145.943 38.8167 146.395 39.3003C146.886 39.754 147.134 40.3271 147.134 41.0044C147.134 41.6791 146.887 42.2498 146.399 42.7026C145.944 43.1575 145.374 43.3842 144.702 43.3843H134.366V72.9243C134.366 73.6352 134.101 74.2396 133.579 74.7261L133.58 74.7271C133.091 75.2153 132.486 75.4604 131.778 75.4604C131.07 75.4604 130.464 75.2156 129.976 74.7271C129.487 74.2385 129.243 73.6326 129.243 72.9243V43.3843H118.854C118.183 43.3842 117.611 43.1584 117.156 42.7036C116.701 42.2485 116.475 41.6765 116.475 41.0044C116.475 40.3352 116.699 39.7661 117.15 39.312C117.604 38.8204 118.177 38.5728 118.854 38.5728H144.702ZM152.722 36.6519C153.428 36.6519 154.031 36.8951 154.519 37.3804L154.704 37.5698C155.108 38.0276 155.309 38.5882 155.309 39.2397V52.2827C156.205 51.3549 157.215 50.501 158.339 49.7212L158.893 49.3481C160.455 48.3186 162.416 47.811 164.763 47.811C166.766 47.8111 168.484 48.2856 169.906 49.2446L170.168 49.4214C171.456 50.3238 172.448 51.5219 173.144 53.0112L173.278 53.3042C173.929 54.7796 174.253 56.4075 174.253 58.1841V72.9243C174.253 73.6351 173.988 74.2386 173.467 74.7251L173.468 74.7261C172.979 75.2147 172.374 75.4594 171.666 75.4595C170.958 75.4595 170.352 75.2148 169.863 74.7261C169.375 74.2375 169.13 73.6326 169.13 72.9243V58.7026C169.13 56.759 168.687 55.2695 167.825 54.2095L167.821 54.2046C167.008 53.1315 165.628 52.5709 163.621 52.5708C161.791 52.5708 160.206 53.0613 158.859 54.0376C157.509 55.0169 156.326 56.1461 155.309 57.4243V72.9243C155.308 73.6351 155.044 74.2386 154.522 74.7251L154.523 74.7261C154.035 75.2147 153.43 75.4594 152.722 75.4595C152.013 75.4595 151.408 75.2148 150.919 74.7261C150.43 74.2375 150.186 73.6326 150.186 72.9243V39.2397C150.186 38.4998 150.428 37.8761 150.919 37.3853C151.408 36.8966 152.013 36.6519 152.722 36.6519ZM222.213 47.811C222.918 47.8111 223.508 48.0546 223.963 48.5444C224.451 49.0331 224.697 49.6388 224.697 50.3472C224.697 51.0555 224.452 51.6471 223.958 52.103C223.466 52.5568 222.844 52.7788 222.109 52.7788H221.85C220.19 52.7789 218.688 53.2013 217.337 54.0454L217.334 54.0474C215.992 54.8524 214.883 55.9061 214.005 57.2085V72.9243C214.005 73.6375 213.74 74.2446 213.215 74.7319L213.214 74.731C212.726 75.216 212.124 75.4593 211.418 75.4595C210.71 75.4595 210.104 75.2146 209.615 74.7261C209.127 74.2375 208.882 73.6325 208.882 72.9243V50.6587C208.882 49.9502 209.127 49.3447 209.615 48.856C210.102 48.3346 210.707 48.0708 211.418 48.0708C212.126 48.0709 212.729 48.3333 213.215 48.8511L213.399 49.0396C213.802 49.4918 214.005 50.0347 214.005 50.6587V52.3081C214.88 51.2286 215.916 50.2448 217.111 49.356C218.498 48.325 220.115 47.811 221.954 47.811H222.213ZM231.248 48.0698C231.988 48.0699 232.612 48.3125 233.103 48.8032C233.593 49.294 233.835 49.9179 233.835 50.6577V72.9233C233.835 73.6317 233.591 74.2374 233.103 74.7261C232.612 75.2168 231.988 75.4594 231.248 75.4595C230.54 75.4595 229.934 75.2148 229.445 74.7261C228.957 74.2374 228.712 73.6317 228.712 72.9233V50.6577C228.712 49.9179 228.955 49.294 229.445 48.8032C229.934 48.3146 230.54 48.0698 231.248 48.0698ZM265.465 38.313C266.139 38.313 266.723 38.5585 267.208 39.0405H267.209C267.707 39.5 267.92 40.0829 267.844 40.7671C267.772 41.4475 267.571 41.9831 267.215 42.3394V42.3403L255.352 54.1509L268.995 71.3462L268.996 71.3472C269.396 71.8567 269.606 72.3975 269.608 72.9653H269.609C269.647 73.6459 269.417 74.2371 268.928 74.7261C268.439 75.2146 267.834 75.4594 267.126 75.4595C266.269 75.4595 265.584 75.1198 265.095 74.4429V74.4419L251.849 57.5513L246.149 63.3003V72.9243C246.149 73.6375 245.884 74.2446 245.359 74.7319L245.358 74.731C244.871 75.216 244.268 75.4594 243.562 75.4595C242.854 75.4595 242.248 75.2147 241.76 74.7261C241.271 74.2375 241.026 73.6325 241.026 72.9243V40.9009C241.026 40.1925 241.271 39.5868 241.76 39.0981C242.246 38.5769 242.852 38.313 243.562 38.313C244.271 38.3131 244.873 38.5758 245.358 39.0933H245.359C245.884 39.5806 246.149 40.1876 246.149 40.9009V56.9155L263.558 39.2036C263.75 38.9772 264.01 38.7762 264.33 38.5981C264.673 38.4076 265.053 38.313 265.465 38.313ZM189.604 75.4272C189.679 75.4197 189.754 75.4124 189.828 75.4038C189.754 75.4124 189.679 75.4197 189.604 75.4272ZM190.031 75.3784C190.087 75.3713 190.142 75.3646 190.196 75.3569C190.142 75.3646 190.087 75.3713 190.031 75.3784ZM190.459 75.3179C190.496 75.312 190.533 75.3054 190.569 75.2993C190.533 75.3054 190.496 75.312 190.459 75.3179ZM190.784 75.2622C190.854 75.2494 190.923 75.2359 190.991 75.2222C190.923 75.2359 190.854 75.2494 190.784 75.2622ZM133.439 74.5845C132.99 75.0343 132.436 75.2593 131.778 75.2593C131.619 75.2593 131.466 75.2456 131.319 75.2192C131.39 75.2319 131.462 75.2429 131.536 75.2495L131.778 75.2603C132.025 75.2603 132.257 75.2279 132.475 75.1646C132.692 75.1013 132.895 75.0069 133.083 74.8804C133.208 74.7961 133.327 74.6977 133.439 74.5854C133.498 74.5311 133.552 74.4739 133.604 74.4165C133.552 74.4738 133.498 74.5302 133.439 74.5845ZM200.669 75.1099C200.407 75.2081 200.124 75.2592 199.816 75.2593C199.654 75.2593 199.497 75.2449 199.347 75.2173C199.421 75.231 199.497 75.2426 199.574 75.2495C199.653 75.2565 199.733 75.2602 199.815 75.2603C200.123 75.2603 200.407 75.2083 200.669 75.1099ZM211.891 75.2173C211.739 75.2454 211.581 75.2593 211.417 75.2593C211.254 75.2593 211.098 75.245 210.947 75.2173C211.022 75.231 211.098 75.2426 211.176 75.2495C211.255 75.2565 211.336 75.2603 211.418 75.2603C211.582 75.2602 211.74 75.2454 211.891 75.2173ZM243.804 75.2495C243.725 75.2565 243.645 75.2593 243.562 75.2593C243.4 75.2593 243.243 75.2449 243.093 75.2173C243.167 75.231 243.243 75.2426 243.32 75.2495L243.562 75.2603C243.645 75.2602 243.725 75.2565 243.804 75.2495ZM266.835 75.2456L267.126 75.2603C267.206 75.2602 267.284 75.2552 267.36 75.2485C267.284 75.2552 267.206 75.2593 267.126 75.2593C267.026 75.2593 266.929 75.2554 266.835 75.2456ZM152.264 75.2192C152.334 75.2318 152.406 75.242 152.479 75.2485C152.406 75.242 152.334 75.2319 152.264 75.2192ZM171.208 75.2192C171.279 75.2318 171.35 75.242 171.424 75.2485C171.35 75.242 171.279 75.2319 171.208 75.2192ZM172.139 75.2173C172.063 75.2313 171.986 75.2415 171.907 75.2485L172.14 75.2173C172.215 75.2032 172.289 75.1856 172.361 75.1646L172.139 75.2173ZM230.79 75.2192C230.861 75.2319 230.932 75.242 231.006 75.2485C230.932 75.242 230.861 75.2319 230.79 75.2192ZM267.389 75.2446C267.454 75.2382 267.519 75.2305 267.582 75.2192C267.519 75.2305 267.454 75.2382 267.389 75.2446ZM231.544 75.2427C231.602 75.2368 231.659 75.2296 231.716 75.2202C231.659 75.2296 231.602 75.2368 231.544 75.2427ZM266.572 75.2026C266.59 75.2065 266.608 75.2099 266.626 75.2134C266.608 75.21 266.59 75.2065 266.572 75.2026ZM199.139 75.1685C199.199 75.1855 199.261 75.2002 199.323 75.2124C199.261 75.2002 199.199 75.1855 199.139 75.1685ZM242.885 75.1685C242.945 75.1855 243.007 75.2002 243.069 75.2124C243.007 75.2002 242.945 75.1855 242.885 75.1685ZM210.74 75.1685C210.8 75.1852 210.86 75.1994 210.922 75.2114C210.86 75.1994 210.8 75.1852 210.74 75.1685ZM267.641 75.2065C267.691 75.1963 267.74 75.1847 267.788 75.1714C267.74 75.1847 267.691 75.1963 267.641 75.2065ZM131.103 75.1694C131.152 75.1833 131.202 75.194 131.253 75.2046C131.202 75.194 131.152 75.1833 131.103 75.1694ZM231.801 75.2036C231.847 75.1943 231.893 75.1842 231.938 75.1724C231.893 75.1842 231.847 75.1943 231.801 75.2036ZM152.057 75.1714C152.095 75.182 152.134 75.191 152.174 75.1997C152.134 75.191 152.095 75.182 152.057 75.1714ZM171.001 75.1714C171.04 75.182 171.079 75.191 171.118 75.1997C171.079 75.191 171.04 75.182 171.001 75.1714ZM230.583 75.1714C230.622 75.182 230.661 75.191 230.7 75.1997C230.661 75.191 230.622 75.182 230.583 75.1714ZM191.141 75.1909C191.217 75.1747 191.292 75.1585 191.367 75.1411C191.292 75.1585 191.217 75.1747 191.141 75.1909ZM266.338 75.1392C266.357 75.1455 266.376 75.1509 266.396 75.1567C266.376 75.1509 266.357 75.1455 266.338 75.1392ZM183.519 74.5854C184.011 74.8189 184.517 75.008 185.034 75.1538C184.517 75.0079 184.011 74.818 183.519 74.5845V74.5854ZM198.939 75.1021C198.986 75.12 199.033 75.1351 199.08 75.1499C199.033 75.1351 198.986 75.1199 198.939 75.1021ZM210.544 75.103C210.589 75.1203 210.634 75.1355 210.68 75.1499C210.634 75.1355 210.589 75.1203 210.544 75.103ZM242.684 75.1011C242.73 75.1193 242.778 75.1349 242.826 75.1499C242.778 75.1349 242.73 75.1193 242.684 75.1011ZM267.862 75.1499C267.905 75.1367 267.946 75.1226 267.987 75.1069C267.946 75.1226 267.905 75.1367 267.862 75.1499ZM232.023 75.1479C232.064 75.1357 232.103 75.1223 232.143 75.1079C232.103 75.1223 232.064 75.1357 232.023 75.1479ZM130.911 75.105C130.949 75.1194 130.987 75.1326 131.025 75.145C130.987 75.1326 130.949 75.1194 130.911 75.105ZM151.857 75.106C151.89 75.1185 151.923 75.1301 151.957 75.1411C151.923 75.1301 151.89 75.1185 151.857 75.106ZM230.384 75.106C230.417 75.1185 230.45 75.1301 230.483 75.1411C230.45 75.1301 230.417 75.1185 230.384 75.106ZM170.806 75.1079C170.835 75.1191 170.865 75.1292 170.896 75.1392C170.865 75.1292 170.835 75.1191 170.806 75.1079ZM191.492 75.1108C191.561 75.0939 191.63 75.0761 191.698 75.0581C191.63 75.0761 191.561 75.0939 191.492 75.1108ZM212.648 74.9233C212.544 74.9877 212.438 75.0456 212.325 75.0913C212.438 75.0455 212.544 74.9877 212.648 74.9233ZM245.223 74.5845V74.5854C245.279 74.5328 245.332 74.4778 245.382 74.4224C245.332 74.4777 245.279 74.532 245.223 74.5845ZM268.067 75.0747C268.114 75.0546 268.16 75.0327 268.206 75.0093C268.16 75.0327 268.114 75.0546 268.067 75.0747ZM232.231 75.0737C232.277 75.0547 232.322 75.0342 232.366 75.0122C232.322 75.0342 232.277 75.0547 232.231 75.0737ZM242.479 75.0083C242.525 75.0316 242.57 75.0537 242.617 75.0737C242.57 75.0537 242.525 75.0316 242.479 75.0083ZM266.125 75.0552C266.138 75.0612 266.152 75.067 266.165 75.0728C266.152 75.067 266.138 75.0612 266.125 75.0552ZM198.732 75.0083C198.776 75.0306 198.82 75.0515 198.864 75.0708C198.82 75.0515 198.776 75.0306 198.732 75.0083ZM210.332 75.0073C210.376 75.0302 210.421 75.0511 210.467 75.0708C210.421 75.0511 210.376 75.0301 210.332 75.0073ZM130.696 75.0093C130.74 75.0315 130.784 75.0516 130.828 75.0708C130.784 75.0516 130.739 75.0315 130.696 75.0093ZM151.656 75.0171C151.69 75.0343 151.725 75.0506 151.76 75.0659C151.725 75.0506 151.69 75.0343 151.656 75.0171ZM230.183 75.0171C230.217 75.0343 230.251 75.0506 230.286 75.0659C230.251 75.0506 230.217 75.0343 230.183 75.0171ZM170.603 75.0181C170.634 75.0339 170.666 75.0487 170.698 75.063C170.666 75.0487 170.634 75.0339 170.603 75.0181ZM201.477 74.5845C201.308 74.7533 201.125 74.8911 200.927 74.9966C201.059 74.9262 201.185 74.8421 201.304 74.7437C201.363 74.6946 201.42 74.6415 201.477 74.5854C201.534 74.5318 201.589 74.4761 201.64 74.4194C201.589 74.476 201.534 74.5309 201.477 74.5845ZM191.858 75.0151C191.917 74.9986 191.976 74.9817 192.034 74.9644C191.976 74.9817 191.917 74.9986 191.858 75.0151ZM268.248 74.9878C268.3 74.9598 268.351 74.9303 268.4 74.8979C268.351 74.9303 268.3 74.9598 268.248 74.9878ZM232.417 74.9868C232.465 74.9616 232.511 74.9345 232.557 74.9058C232.511 74.9345 232.465 74.9616 232.417 74.9868ZM210.145 74.8989C210.192 74.9296 210.24 74.9581 210.289 74.9849C210.24 74.9581 210.192 74.9296 210.145 74.8989ZM242.301 74.9058C242.343 74.9327 242.385 74.9581 242.429 74.9819C242.385 74.9581 242.343 74.9327 242.301 74.9058ZM198.555 74.9058C198.596 74.9323 198.638 74.9574 198.681 74.981C198.638 74.9574 198.596 74.9323 198.555 74.9058ZM151.475 74.9146C151.507 74.9352 151.54 74.9553 151.574 74.9741C151.54 74.9553 151.507 74.9352 151.475 74.9146ZM170.419 74.9146C170.452 74.9352 170.485 74.9553 170.519 74.9741C170.485 74.9553 170.452 74.9352 170.419 74.9146ZM230.008 74.9185C230.039 74.9376 230.069 74.9566 230.101 74.9741C230.069 74.9566 230.039 74.9376 230.008 74.9185ZM130.519 74.9067C130.556 74.9304 130.593 74.9529 130.631 74.9741C130.593 74.9529 130.556 74.9304 130.519 74.9067ZM192.197 74.9146C192.276 74.8898 192.353 74.8646 192.43 74.8384C192.353 74.8646 192.276 74.8898 192.197 74.9146ZM269.078 74.231C268.996 74.3542 268.899 74.472 268.786 74.5845C268.676 74.6948 268.559 74.7913 268.437 74.8745C268.497 74.8337 268.556 74.7909 268.613 74.7437L268.786 74.5854C268.842 74.5294 268.895 74.4713 268.943 74.4126C268.992 74.3537 269.037 74.2935 269.078 74.2319V74.231ZM130.318 74.7632C130.364 74.8002 130.411 74.8358 130.459 74.8687C130.411 74.8358 130.364 74.8002 130.318 74.7632ZM232.617 74.8677C232.675 74.8287 232.732 74.7874 232.786 74.7427C232.732 74.7875 232.675 74.8287 232.617 74.8677ZM209.961 74.7661C210.005 74.8012 210.049 74.8344 210.095 74.8657C210.049 74.8344 210.005 74.8012 209.961 74.7661ZM242.079 74.7456C242.131 74.7883 242.184 74.8283 242.238 74.8657C242.184 74.8283 242.131 74.7883 242.079 74.7456ZM198.333 74.7456C198.383 74.787 198.435 74.8254 198.487 74.8618C198.435 74.8255 198.383 74.787 198.333 74.7456ZM151.265 74.7651C151.305 74.7978 151.346 74.8295 151.389 74.8589C151.346 74.8295 151.305 74.7978 151.265 74.7651ZM170.209 74.7651C170.25 74.7978 170.291 74.8295 170.333 74.8589C170.291 74.8295 170.25 74.7978 170.209 74.7651ZM229.806 74.7769C229.842 74.8053 229.878 74.833 229.915 74.8589C229.878 74.833 229.842 74.8053 229.806 74.7769ZM265.742 74.8267C265.754 74.8354 265.766 74.8436 265.777 74.8521C265.766 74.8436 265.754 74.8354 265.742 74.8267ZM192.504 74.813C192.586 74.7843 192.666 74.7536 192.746 74.7231C192.666 74.7536 192.586 74.7843 192.504 74.813ZM213.078 74.5845C213.022 74.6409 212.964 74.6943 212.904 74.7437C212.964 74.6944 213.022 74.6417 213.078 74.5854C213.136 74.5317 213.19 74.4762 213.241 74.4194C213.19 74.476 213.136 74.5309 213.078 74.5845ZM241.75 74.4194C241.797 74.4761 241.848 74.5317 241.901 74.5854C241.957 74.6412 242.015 74.6928 242.074 74.7417C242.015 74.6927 241.957 74.6404 241.901 74.5845C241.848 74.5309 241.797 74.476 241.75 74.4194ZM198.004 74.4194C198.051 74.4762 198.102 74.5317 198.155 74.5854C198.211 74.6409 198.269 74.6921 198.327 74.7407C198.268 74.692 198.211 74.64 198.155 74.5845C198.102 74.5309 198.051 74.476 198.004 74.4194ZM150.912 74.4224C150.959 74.4778 151.008 74.5319 151.061 74.5845C151.114 74.6379 151.169 74.6878 151.226 74.7349C151.169 74.6878 151.114 74.6379 151.061 74.5845C151.008 74.5319 150.959 74.4778 150.912 74.4224ZM169.856 74.4224C169.903 74.4778 169.952 74.5319 170.005 74.5845C170.058 74.6379 170.114 74.6878 170.17 74.7349C170.114 74.6878 170.058 74.6379 170.005 74.5845C169.952 74.5319 169.903 74.4778 169.856 74.4224ZM209.605 74.4194C209.653 74.4761 209.703 74.5318 209.757 74.5854C209.81 74.6385 209.865 74.688 209.921 74.7349C209.865 74.6879 209.81 74.6377 209.757 74.5845C209.703 74.5309 209.653 74.476 209.605 74.4194ZM229.587 74.5845C229.64 74.6379 229.696 74.6878 229.752 74.7349C229.696 74.6878 229.64 74.6378 229.587 74.5845ZM130.117 74.5854C130.17 74.6387 130.226 74.6879 130.282 74.7349C130.226 74.6878 130.171 74.6378 130.117 74.5845V74.5854ZM265.558 74.6704C265.571 74.683 265.584 74.6954 265.598 74.7075C265.584 74.6954 265.571 74.683 265.558 74.6704ZM194.853 73.6372C194.502 73.8534 194.132 74.0654 193.743 74.2729C193.456 74.4262 193.153 74.565 192.835 74.6899C193.045 74.6073 193.249 74.5194 193.446 74.4243C193.547 74.3757 193.646 74.3257 193.743 74.2739C194.132 74.0664 194.502 73.8543 194.853 73.6382V73.6372ZM232.961 74.5845L233.101 74.4331C233.104 74.4296 233.106 74.4259 233.109 74.4224C233.063 74.4778 233.014 74.5319 232.961 74.5845ZM154.423 74.5435C154.463 74.5042 154.503 74.4651 154.54 74.4243C154.503 74.4652 154.463 74.5042 154.423 74.5435ZM173.367 74.5435C173.408 74.5042 173.447 74.4651 173.484 74.4243C173.447 74.4652 173.408 74.5042 173.367 74.5435ZM265.379 74.479C265.394 74.4966 265.408 74.5147 265.423 74.5317C265.408 74.5147 265.394 74.4966 265.379 74.479ZM133.629 74.3862C133.67 74.3393 133.708 74.2916 133.744 74.2427C133.708 74.2916 133.67 74.3393 133.629 74.3862ZM241.62 74.2466C241.649 74.2882 241.679 74.3285 241.711 74.3687C241.679 74.3285 241.649 74.2881 241.62 74.2466ZM150.779 74.2466C150.804 74.2832 150.832 74.3185 150.859 74.354C150.832 74.3185 150.804 74.2832 150.779 74.2466ZM169.724 74.2466C169.749 74.2832 169.776 74.3185 169.804 74.354C169.776 74.3185 169.749 74.2832 169.724 74.2466ZM197.874 74.2466C197.899 74.2832 197.927 74.3185 197.954 74.354C197.926 74.3185 197.899 74.2832 197.874 74.2466ZM201.692 74.354C201.721 74.3196 201.75 74.2859 201.776 74.2505C201.75 74.2859 201.721 74.3196 201.692 74.354ZM213.294 74.354C213.322 74.32 213.351 74.2865 213.377 74.2515C213.351 74.2865 213.322 74.32 213.294 74.354ZM233.162 74.354C233.19 74.3186 233.216 74.2831 233.241 74.2466C233.216 74.283 233.19 74.3186 233.162 74.354ZM245.438 74.354C245.467 74.32 245.495 74.2865 245.521 74.2515C245.495 74.2865 245.467 74.32 245.438 74.354ZM209.479 74.2515C209.499 74.2818 209.522 74.3108 209.545 74.3403C209.522 74.3108 209.499 74.2818 209.479 74.2515ZM154.612 74.3374C154.636 74.3088 154.66 74.2808 154.682 74.2515C154.66 74.2808 154.636 74.3088 154.612 74.3374ZM173.557 74.3374C173.58 74.3088 173.604 74.2808 173.626 74.2515C173.604 74.2808 173.58 74.3088 173.557 74.3374ZM182.604 74.0698V74.0688V74.0698ZM197.76 74.061C197.783 74.1035 197.809 74.1449 197.835 74.186C197.809 74.1449 197.783 74.1035 197.76 74.061ZM233.28 74.186C233.306 74.1455 233.331 74.1048 233.354 74.063C233.331 74.1048 233.306 74.1455 233.28 74.186ZM241.507 74.063C241.53 74.1048 241.555 74.1455 241.581 74.186C241.555 74.1455 241.53 74.1048 241.507 74.063ZM133.784 74.186C133.812 74.145 133.839 74.1034 133.864 74.061C133.839 74.1034 133.812 74.145 133.784 74.186ZM201.822 74.1841C201.85 74.1435 201.877 74.103 201.902 74.061C201.877 74.103 201.85 74.1435 201.822 74.1841ZM150.669 74.0679C150.69 74.1053 150.712 74.1418 150.735 74.1782C150.712 74.1418 150.69 74.1053 150.669 74.0679ZM169.613 74.0679C169.634 74.1053 169.657 74.1418 169.68 74.1782C169.657 74.1418 169.634 74.1053 169.613 74.0679ZM213.432 74.1724C213.456 74.1361 213.481 74.1003 213.503 74.063C213.481 74.1003 213.456 74.1361 213.432 74.1724ZM245.576 74.1724C245.599 74.1385 245.622 74.1046 245.643 74.0698C245.622 74.1046 245.599 74.1385 245.576 74.1724ZM209.361 74.061C209.382 74.0984 209.404 74.135 209.427 74.1714C209.404 74.1351 209.382 74.0984 209.361 74.061ZM154.741 74.1636C154.761 74.1345 154.78 74.1054 154.798 74.0757C154.78 74.1054 154.761 74.1345 154.741 74.1636ZM173.686 74.1636C173.705 74.1345 173.724 74.1054 173.742 74.0757C173.724 74.1054 173.705 74.1345 173.686 74.1636ZM209.271 73.8774C209.289 73.919 209.308 73.9601 209.329 74.0005C209.308 73.9601 209.29 73.919 209.271 73.8774ZM241.416 73.8774C241.433 73.9165 241.452 73.9547 241.471 73.9927C241.451 73.9547 241.433 73.9165 241.416 73.8774ZM197.667 73.8696C197.685 73.9106 197.704 73.9509 197.724 73.9907C197.704 73.9509 197.685 73.9106 197.667 73.8696ZM201.942 73.9907C201.964 73.951 201.983 73.9105 202.002 73.8696C201.983 73.9105 201.964 73.951 201.942 73.9907ZM213.543 73.9907C213.565 73.9508 213.586 73.9107 213.604 73.8696C213.586 73.9107 213.565 73.9508 213.543 73.9907ZM233.393 73.9907C233.413 73.9509 233.432 73.9106 233.449 73.8696C233.432 73.9106 233.413 73.9509 233.393 73.9907ZM245.688 73.9907C245.709 73.9509 245.729 73.9106 245.748 73.8696C245.729 73.9106 245.709 73.9509 245.688 73.9907ZM133.904 73.9907C133.924 73.9545 133.942 73.9175 133.959 73.8804C133.942 73.9175 133.924 73.9545 133.904 73.9907ZM150.572 73.8696C150.588 73.9059 150.605 73.9416 150.622 73.9771C150.605 73.9416 150.588 73.906 150.572 73.8696ZM154.854 73.9771C154.873 73.9418 154.89 73.9058 154.907 73.8696C154.89 73.9058 154.873 73.9417 154.854 73.9771ZM169.517 73.8696C169.532 73.9059 169.549 73.9416 169.566 73.9771C169.549 73.9416 169.532 73.906 169.517 73.8696ZM173.799 73.9771C173.818 73.9418 173.835 73.9058 173.852 73.8696C173.835 73.9058 173.818 73.9417 173.799 73.9771ZM293.941 73.2358V73.2349C293.656 73.3992 293.364 73.5581 293.065 73.7095C293.364 73.5582 293.656 73.4002 293.941 73.2358ZM245.778 73.8022C245.799 73.7538 245.817 73.7048 245.834 73.6548C245.817 73.7048 245.799 73.7538 245.778 73.8022ZM233.479 73.7964C233.496 73.7518 233.511 73.7066 233.525 73.6606C233.511 73.7066 233.496 73.7518 233.479 73.7964ZM133.997 73.7954C134.015 73.7511 134.033 73.7063 134.048 73.6606C134.032 73.7063 134.015 73.7511 133.997 73.7954ZM154.941 73.7944C154.96 73.7486 154.977 73.702 154.993 73.6548C154.977 73.702 154.96 73.7486 154.941 73.7944ZM173.886 73.7944C173.905 73.7486 173.922 73.702 173.938 73.6548C173.922 73.702 173.905 73.7486 173.886 73.7944ZM202.036 73.7944C202.055 73.7486 202.072 73.702 202.088 73.6548C202.072 73.702 202.055 73.7486 202.036 73.7944ZM241.341 73.6743C241.354 73.7148 241.367 73.755 241.382 73.7944C241.367 73.755 241.354 73.7148 241.341 73.6743ZM213.638 73.7915C213.653 73.7535 213.668 73.7152 213.682 73.6763C213.668 73.7152 213.653 73.7535 213.638 73.7915ZM150.495 73.6606C150.508 73.7029 150.522 73.7445 150.538 73.7856C150.522 73.7445 150.508 73.7029 150.495 73.6606ZM169.439 73.6606C169.453 73.7029 169.467 73.7445 169.482 73.7856C169.467 73.7445 169.453 73.7029 169.439 73.6606ZM197.59 73.6606C197.603 73.7029 197.617 73.7445 197.633 73.7856C197.617 73.7445 197.603 73.7029 197.59 73.6606ZM209.196 73.6763C209.208 73.7131 209.22 73.7497 209.233 73.7856C209.22 73.7497 209.208 73.7131 209.196 73.6763ZM181.78 73.4556V73.4565V73.4556ZM233.544 73.6001C233.561 73.5393 233.576 73.4776 233.588 73.4146C233.576 73.4776 233.561 73.5393 233.544 73.6001ZM155.012 73.5972C155.029 73.5414 155.043 73.4849 155.056 73.4272C155.043 73.4849 155.029 73.5414 155.012 73.5972ZM173.956 73.5972C173.973 73.5414 173.988 73.4849 174 73.4272C173.988 73.4849 173.973 73.5414 173.956 73.5972ZM202.106 73.5972C202.123 73.5414 202.138 73.4849 202.15 73.4272C202.138 73.4849 202.123 73.5414 202.106 73.5972ZM245.853 73.5972C245.869 73.5414 245.884 73.4849 245.896 73.4272C245.884 73.4849 245.869 73.5414 245.853 73.5972ZM134.068 73.5972C134.085 73.5414 134.1 73.4849 134.112 73.4272C134.1 73.4849 134.085 73.5414 134.068 73.5972ZM209.139 73.4585C209.148 73.5016 209.157 73.5444 209.169 73.5864C209.157 73.5444 209.148 73.5016 209.139 73.4585ZM241.283 73.4585C241.292 73.5016 241.302 73.5444 241.313 73.5864C241.302 73.5444 241.292 73.5016 241.283 73.4585ZM150.442 73.4585C150.451 73.5009 150.46 73.5431 150.472 73.5845C150.46 73.5431 150.451 73.5009 150.442 73.4585ZM169.387 73.4585C169.396 73.5009 169.405 73.5431 169.416 73.5845C169.405 73.5431 169.396 73.5009 169.387 73.4585ZM197.537 73.4585C197.546 73.5009 197.555 73.5431 197.566 73.5845C197.555 73.5431 197.546 73.5009 197.537 73.4585ZM213.711 73.5845C213.726 73.5327 213.741 73.4806 213.752 73.4272C213.741 73.4806 213.726 73.5327 213.711 73.5845ZM134.121 73.3882C134.135 73.3157 134.147 73.2419 134.154 73.1665C134.147 73.2419 134.135 73.3157 134.121 73.3882ZM233.636 72.9243C233.636 73.0852 233.621 73.2397 233.594 73.3882C233.607 73.3155 233.618 73.2412 233.625 73.1655L233.636 72.9233V72.9243ZM269.409 72.9761C269.409 72.9153 269.406 72.8547 269.4 72.7944C269.406 72.8547 269.409 72.9153 269.409 72.9761ZM294.875 72.4565C294.784 72.5734 294.684 72.6834 294.573 72.7856C294.684 72.6834 294.785 72.5744 294.876 72.4575C294.908 72.4174 294.936 72.3755 294.965 72.3345C294.937 72.3755 294.907 72.4165 294.875 72.4565ZM269.387 72.6802C269.384 72.6603 269.381 72.6404 269.378 72.6206C269.381 72.6404 269.384 72.6603 269.387 72.6802ZM180.714 72.354H180.715H180.714ZM269.358 72.5229C269.352 72.4942 269.345 72.4656 269.338 72.437C269.345 72.4656 269.352 72.4942 269.358 72.5229ZM269.311 72.3423C269.302 72.3152 269.293 72.2883 269.283 72.2612C269.293 72.2883 269.302 72.3152 269.311 72.3423ZM294.996 72.2886C295.015 72.2592 295.034 72.2296 295.051 72.1997C295.033 72.2296 295.015 72.2592 294.996 72.2886ZM269.25 72.1714C269.237 72.14 269.224 72.1089 269.21 72.0776C269.224 72.1089 269.237 72.14 269.25 72.1714ZM295.074 72.1577C295.091 72.1273 295.106 72.0968 295.121 72.0659C295.106 72.0968 295.091 72.1273 295.074 72.1577ZM295.136 72.0337C295.15 72.0014 295.163 71.9688 295.176 71.936C295.163 71.9688 295.15 72.0014 295.136 72.0337ZM269.175 72.0015C269.151 71.9534 269.126 71.9057 269.099 71.8579C269.126 71.9057 269.151 71.9534 269.175 72.0015ZM295.193 71.8872C295.202 71.8622 295.21 71.8373 295.218 71.812C295.21 71.8373 295.202 71.8622 295.193 71.8872ZM269.084 71.8315C269.05 71.7725 269.013 71.7133 268.974 71.6548C269.013 71.7133 269.05 71.7726 269.084 71.8315ZM295.237 71.7437C295.245 71.7142 295.251 71.6846 295.257 71.6548C295.251 71.6846 295.245 71.7142 295.237 71.7437ZM295.28 71.0991C295.287 71.1695 295.29 71.2414 295.29 71.3149C295.29 71.4146 295.282 71.5122 295.266 71.6079C295.273 71.5621 295.28 71.516 295.284 71.4692L295.291 71.3149C295.291 71.1679 295.278 71.0271 295.252 70.8931L295.28 71.0991ZM191.823 63.3149C189.415 63.315 187.526 63.6248 186.143 64.2319L186.142 64.231C185.478 64.5298 184.993 64.9281 184.672 65.4175C184.351 65.907 184.186 66.5035 184.186 67.2153C184.186 68.2697 184.546 69.1896 185.271 69.9829C186.008 70.7517 187.39 71.1674 189.487 71.1675C191.079 71.1675 192.568 70.7775 193.957 69.9985C195.334 69.2262 196.439 68.3575 197.28 67.397V63.3149H191.823ZM191.849 71.0679L191.85 71.0688L191.849 71.0679ZM283.434 70.9946C283.705 71.0294 283.984 71.0563 284.271 71.0747C283.984 71.0563 283.705 71.0294 283.434 70.9946ZM186.55 70.9731V70.9722V70.9731ZM179.548 70.0044C179.572 70.0919 179.597 70.1784 179.624 70.2642C179.571 70.0926 179.523 69.9174 179.481 69.7388L179.548 70.0044ZM184.907 69.8618C184.977 69.9495 185.05 70.0367 185.128 70.1216L184.998 69.9741C184.967 69.9372 184.937 69.8993 184.907 69.8618ZM294.668 69.8618C294.62 69.8179 294.57 69.7767 294.521 69.7378C294.57 69.7767 294.62 69.8178 294.668 69.8618ZM294.458 69.6919C294.426 69.6686 294.394 69.6458 294.361 69.6245C294.394 69.6458 294.426 69.6686 294.458 69.6919ZM294.305 69.5894C294.267 69.5664 294.228 69.5452 294.189 69.5249C294.228 69.5452 294.267 69.5664 294.305 69.5894ZM294.144 69.5015C294.107 69.4835 294.07 69.4664 294.032 69.4507C294.07 69.4664 294.107 69.4834 294.144 69.5015ZM293.956 69.4204C293.927 69.4098 293.898 69.4004 293.869 69.3911C293.898 69.4004 293.927 69.4098 293.956 69.4204ZM293.774 69.3628C293.75 69.3562 293.724 69.3509 293.699 69.3452C293.724 69.3509 293.75 69.3562 293.774 69.3628ZM184.466 69.1929C184.488 69.2355 184.512 69.2778 184.536 69.3198C184.512 69.2778 184.488 69.2355 184.466 69.1929ZM276.627 65.4673H276.628H276.627ZM276.19 63.4263H276.191H276.19ZM186.062 64.0483C185.889 64.1263 185.727 64.2117 185.575 64.3032C185.727 64.2119 185.889 64.1272 186.062 64.0493L186.062 64.0483ZM294.051 63.4155C294.135 63.4086 294.216 63.3969 294.296 63.3833C294.216 63.3969 294.135 63.4086 294.051 63.4155ZM294.321 63.3784C294.388 63.3663 294.453 63.3514 294.517 63.3345C294.453 63.3514 294.388 63.3663 294.321 63.3784ZM294.581 63.3149C294.629 63.3008 294.675 63.286 294.721 63.269C294.675 63.286 294.629 63.3008 294.581 63.3149ZM294.803 63.2358C294.844 63.2186 294.884 63.2007 294.923 63.1812C294.884 63.2007 294.844 63.2186 294.803 63.2358ZM190.514 63.147C190.438 63.1509 190.363 63.156 190.289 63.1606C190.501 63.1474 190.717 63.1369 190.938 63.1294L190.514 63.147ZM294.993 63.145C295.035 63.1222 295.075 63.0974 295.114 63.0718C295.075 63.0974 295.035 63.1222 294.993 63.145ZM295.176 63.0317C295.217 63.0029 295.256 62.9719 295.295 62.9399C295.256 62.9719 295.217 63.0029 295.176 63.0317ZM295.794 62.394C295.71 62.5197 295.611 62.6389 295.498 62.7515C295.449 62.805 295.397 62.8547 295.343 62.9019C295.397 62.8546 295.45 62.8051 295.499 62.7515C295.612 62.6389 295.71 62.5196 295.794 62.394ZM182.546 61.4282C182.416 61.5203 182.29 61.6153 182.169 61.7134H182.17C182.291 61.6154 182.417 61.5202 182.546 61.4282ZM182.945 61.1616C182.826 61.2362 182.711 61.3139 182.598 61.3931C182.711 61.3139 182.826 61.2362 182.945 61.1616ZM183.353 60.9224C183.255 60.9764 183.16 61.0336 183.066 61.0903C183.16 61.0336 183.255 60.9764 183.353 60.9224ZM183.798 60.6909C183.701 60.7382 183.606 60.7887 183.512 60.8384C183.606 60.7887 183.701 60.7382 183.798 60.6909ZM184.246 60.4878C184.157 60.526 184.069 60.5659 183.981 60.606C184.069 60.5658 184.157 60.526 184.246 60.4878ZM184.735 60.2925C184.648 60.325 184.561 60.3589 184.476 60.3931C184.561 60.3589 184.648 60.325 184.735 60.2925ZM185.222 60.1245C185.14 60.151 185.059 60.1787 184.979 60.2065C185.059 60.1787 185.14 60.151 185.222 60.1245ZM185.77 59.9614C185.679 59.9862 185.59 60.0113 185.502 60.0376C185.59 60.0113 185.679 59.9862 185.77 59.9614ZM186.352 59.814C186.24 59.8397 186.13 59.8663 186.021 59.894C186.13 59.8663 186.24 59.8397 186.352 59.814ZM186.937 59.6909C186.814 59.7144 186.693 59.7384 186.573 59.7642C186.693 59.7384 186.814 59.7144 186.937 59.6909ZM187.517 59.5903C187.399 59.6088 187.282 59.6275 187.167 59.6479C187.282 59.6275 187.399 59.6088 187.517 59.5903ZM276.231 59.0718C276.215 59.2397 276.2 59.411 276.19 59.5854H276.191C276.201 59.411 276.215 59.2397 276.231 59.0718ZM188.122 59.5054C188.012 59.519 187.904 59.5321 187.796 59.5474C187.904 59.5321 188.012 59.519 188.122 59.5054ZM188.803 59.4312C188.675 59.4429 188.547 59.4545 188.422 59.4683C188.547 59.4545 188.675 59.4429 188.803 59.4312ZM189.447 59.3813C189.322 59.3894 189.198 59.397 189.075 59.4067C189.198 59.3969 189.322 59.3894 189.447 59.3813ZM283.82 52.2075C282.745 52.2076 281.648 52.4596 280.529 52.9683C279.422 53.4716 278.48 54.2611 277.703 55.3423C276.966 56.3674 276.531 57.7108 276.406 59.3853H291.287C291.162 57.7126 290.709 56.3698 289.94 55.3452L289.938 55.3423C289.161 54.261 288.218 53.4716 287.111 52.9683C285.992 52.4596 284.895 52.2076 283.82 52.2075ZM276.358 58.1616C276.329 58.3201 276.303 58.4818 276.28 58.647C276.303 58.4818 276.329 58.3201 276.358 58.1616ZM290.101 55.2251V55.2261C290.152 55.2951 290.203 55.3653 290.252 55.437C290.35 55.5809 290.442 55.7305 290.529 55.8853C290.399 55.6531 290.256 55.4329 290.101 55.2251ZM277.54 55.2251C277.442 55.3608 277.35 55.5018 277.263 55.6479C277.305 55.5762 277.35 55.5062 277.396 55.437L277.54 55.2261V55.2251ZM278.415 54.1958C278.214 54.3954 278.02 54.6084 277.836 54.8364C278.02 54.6084 278.214 54.3953 278.415 54.1958ZM217.919 53.4888C217.686 53.6066 217.456 53.7348 217.23 53.8755C217.001 54.0129 216.779 54.1584 216.563 54.3101C216.698 54.2157 216.834 54.1235 216.974 54.0347L217.23 53.8765C217.456 53.7357 217.685 53.6067 217.919 53.4888ZM279.107 53.5894C278.884 53.7603 278.67 53.9456 278.464 54.146C278.67 53.9457 278.884 53.7603 279.107 53.5894ZM288.018 53.231C288.281 53.3975 288.534 53.5824 288.776 53.7856C288.837 53.8365 288.897 53.8887 288.956 53.9419V53.9409C288.66 53.6755 288.347 53.439 288.018 53.231ZM273.44 53.6362C273.403 53.7014 273.367 53.7674 273.33 53.8335C273.367 53.7674 273.403 53.7014 273.44 53.6362ZM182.585 53.7905C182.641 53.8011 182.698 53.8094 182.756 53.8149L182.947 53.8247L182.948 53.8237C182.823 53.8237 182.702 53.8126 182.585 53.7905ZM182.416 53.7485C182.447 53.7576 182.479 53.7655 182.511 53.7729C182.479 53.7655 182.447 53.7576 182.416 53.7485ZM182.25 53.6909C182.282 53.7039 182.315 53.716 182.348 53.7271C182.315 53.716 182.282 53.7039 182.25 53.6909ZM182.099 53.6216C182.127 53.6361 182.155 53.6497 182.184 53.6626C182.155 53.6497 182.127 53.6361 182.099 53.6216ZM181.951 53.5366C181.974 53.5511 181.996 53.5652 182.02 53.5786C181.996 53.5652 181.974 53.5511 181.951 53.5366ZM279.841 53.0981C279.594 53.2411 279.357 53.4 279.129 53.5737C279.357 53.4001 279.594 53.2411 279.841 53.0981ZM181.807 53.4351C181.829 53.4521 181.851 53.4689 181.873 53.4849C181.851 53.4689 181.829 53.4521 181.807 53.4351ZM273.628 53.3218C273.596 53.374 273.565 53.4271 273.533 53.48C273.565 53.4271 273.596 53.374 273.628 53.3218ZM200.759 52.7896C200.859 52.9628 200.954 53.1401 201.043 53.3208C200.954 53.1401 200.859 52.9628 200.759 52.7896ZM273.84 52.9907C273.814 53.0297 273.789 53.0695 273.764 53.1089C273.789 53.0695 273.814 53.0297 273.84 52.9907ZM181.359 52.9653C181.388 53.0066 181.418 53.0468 181.45 53.0864C181.418 53.0468 181.388 53.0066 181.359 52.9653ZM281.3 52.4458C281.016 52.5431 280.732 52.6559 280.446 52.7856L280.447 52.7866C280.733 52.6569 281.017 52.5431 281.3 52.4458ZM160.697 52.8472H160.698H160.697ZM181.265 52.811C181.281 52.8411 181.299 52.8706 181.317 52.8999C181.299 52.8706 181.281 52.8411 181.265 52.811ZM215.361 51.1118C215.076 51.393 214.803 51.6818 214.544 51.978C214.803 51.6818 215.076 51.3929 215.361 51.1118ZM287.193 52.7856L287.194 52.7866L287.193 52.7856ZM274.073 52.6548C274.038 52.7032 274.005 52.7523 273.971 52.8013C274.005 52.7523 274.038 52.7032 274.073 52.6548ZM155.517 52.354C155.378 52.4962 155.242 52.6399 155.108 52.7856C155.242 52.6399 155.378 52.4962 155.517 52.354ZM181.188 52.6548C181.202 52.6885 181.218 52.7216 181.234 52.7544C181.218 52.7216 181.202 52.6885 181.188 52.6548ZM200.705 52.6997C200.669 52.6384 200.632 52.5774 200.594 52.5171C200.632 52.5774 200.669 52.6384 200.705 52.6997ZM181.121 52.4761C181.132 52.5107 181.143 52.5449 181.156 52.5786C181.143 52.5449 181.132 52.5107 181.121 52.4761ZM222.363 52.5688C222.435 52.5632 222.505 52.553 222.574 52.5425C222.505 52.553 222.435 52.5632 222.363 52.5688ZM222.656 52.5278C222.704 52.5191 222.751 52.5097 222.797 52.4985C222.751 52.5097 222.704 52.5191 222.656 52.5278ZM274.329 52.314C274.28 52.3767 274.232 52.4397 274.185 52.5034C274.232 52.4397 274.28 52.3767 274.329 52.314ZM190.525 52.4741V52.4751L190.96 52.481C191.031 52.4829 191.103 52.4858 191.173 52.4888C190.962 52.4799 190.746 52.4741 190.525 52.4741ZM223.24 52.3452C223.117 52.4024 222.989 52.4488 222.854 52.4849C222.989 52.4488 223.117 52.4024 223.24 52.3452ZM162.265 52.4644H162.266H162.265ZM200.548 52.4458C200.507 52.3815 200.465 52.3176 200.422 52.2544C200.465 52.3176 200.507 52.3815 200.548 52.4458ZM181.067 52.2671C181.077 52.3174 181.089 52.3669 181.103 52.4155C181.089 52.3669 181.077 52.3174 181.067 52.2671ZM223.308 52.311C223.346 52.2916 223.384 52.2711 223.421 52.2495C223.384 52.2711 223.346 52.2916 223.308 52.311ZM181.059 52.2261C181.06 52.2323 181.061 52.2384 181.062 52.2446C181.051 52.1827 181.042 52.1196 181.036 52.0552L181.059 52.2261ZM223.822 51.9556C223.715 52.0544 223.6 52.14 223.479 52.2153C223.537 52.1797 223.593 52.143 223.647 52.1021L223.822 51.9556C223.875 51.9071 223.923 51.856 223.97 51.8042C223.923 51.856 223.875 51.9071 223.822 51.9556ZM155.937 51.938C155.845 52.0258 155.756 52.1154 155.667 52.2046C155.756 52.1153 155.845 52.0258 155.937 51.938ZM274.566 52.019C274.524 52.0702 274.481 52.1214 274.439 52.1733C274.481 52.1214 274.524 52.0702 274.566 52.019ZM200.354 52.1567C200.317 52.1051 200.281 52.0533 200.244 52.0024C200.281 52.0533 200.317 52.1051 200.354 52.1567ZM292.284 51.2515C292.539 51.4972 292.783 51.753 293.013 52.02C292.783 51.753 292.539 51.4972 292.284 51.2515ZM200.173 51.9077C200.131 51.8523 200.089 51.7972 200.046 51.7427C200.089 51.7972 200.131 51.8523 200.173 51.9077ZM274.848 51.6929C274.792 51.7553 274.735 51.8177 274.681 51.8813C274.735 51.8177 274.792 51.7553 274.848 51.6929ZM181.032 51.6899C181.029 51.7429 181.027 51.7971 181.027 51.8521C181.027 51.7938 181.03 51.7363 181.033 51.6802L181.032 51.6899ZM156.391 51.5161C156.285 51.6113 156.181 51.7073 156.078 51.8042C156.181 51.7073 156.285 51.6113 156.391 51.5161ZM224.021 51.7427C224.048 51.7096 224.075 51.6764 224.1 51.6421C224.075 51.6764 224.048 51.7096 224.021 51.7427ZM199.985 51.6675C199.941 51.6127 199.896 51.5583 199.851 51.5044C199.896 51.5583 199.941 51.6127 199.985 51.6675ZM275.138 51.3823C275.074 51.4477 275.011 51.5128 274.949 51.5796C275.011 51.5128 275.074 51.4477 275.138 51.3823ZM224.147 51.5728C224.17 51.5387 224.192 51.5045 224.213 51.4692C224.192 51.5045 224.17 51.5387 224.147 51.5728ZM324.396 51.5405C324.419 51.4811 324.438 51.4199 324.455 51.3589C324.438 51.42 324.419 51.481 324.396 51.5405ZM199.794 51.438C199.74 51.3751 199.684 51.3131 199.628 51.2515C199.684 51.3131 199.74 51.3751 199.794 51.438ZM156.836 51.1265C156.734 51.2132 156.633 51.3009 156.533 51.3892C156.633 51.3009 156.734 51.2132 156.836 51.1265ZM224.256 51.3892C224.275 51.3525 224.294 51.3157 224.311 51.2778C224.294 51.3157 224.275 51.3525 224.256 51.3892ZM275.394 51.1265C275.335 51.1838 275.275 51.2409 275.218 51.2993C275.275 51.2409 275.335 51.1838 275.394 51.1265ZM181.111 51.2085C181.105 51.2313 181.099 51.2545 181.094 51.2778C181.099 51.2545 181.105 51.2314 181.111 51.2085ZM324.476 51.2778C324.485 51.2387 324.494 51.1994 324.502 51.1597C324.494 51.1994 324.485 51.2387 324.476 51.2778ZM224.339 51.2085C224.356 51.1644 224.372 51.1195 224.387 51.0737C224.372 51.1195 224.356 51.1644 224.339 51.2085ZM199.574 51.1929C199.521 51.1353 199.466 51.0784 199.411 51.022C199.466 51.0784 199.521 51.1353 199.574 51.1929ZM181.154 51.0737C181.144 51.102 181.135 51.1307 181.126 51.1597C181.135 51.1307 181.144 51.102 181.154 51.0737ZM324.553 50.6577C324.553 50.8034 324.539 50.9454 324.517 51.0835C324.527 51.0194 324.537 50.9549 324.543 50.8892L324.553 50.6587V50.6577ZM275.684 50.854C275.622 50.9098 275.56 50.9651 275.5 51.022C275.56 50.9651 275.622 50.9098 275.684 50.854ZM181.21 50.937C181.198 50.9628 181.186 50.9886 181.176 51.0151C181.186 50.9886 181.198 50.9629 181.21 50.937ZM224.405 51.0151C224.422 50.9568 224.436 50.8973 224.448 50.8364C224.436 50.8973 224.422 50.9568 224.405 51.0151ZM157.299 50.7456C157.199 50.8257 157.099 50.9063 157.001 50.9878C157.099 50.9063 157.199 50.8257 157.299 50.7456ZM199.327 50.937C199.277 50.8871 199.226 50.8376 199.175 50.7886C199.226 50.8376 199.277 50.8871 199.327 50.937ZM181.275 50.8062C181.261 50.8319 181.247 50.8578 181.234 50.8843C181.247 50.8578 181.261 50.8319 181.275 50.8062ZM224.497 50.3462C224.497 50.5067 224.482 50.6601 224.455 50.8062C224.468 50.7349 224.48 50.6621 224.486 50.5874L224.497 50.3472V50.3462ZM181.348 50.686C181.332 50.7095 181.317 50.7332 181.303 50.7573C181.317 50.7331 181.332 50.7095 181.348 50.686ZM199.13 50.7456C199.073 50.6922 199.015 50.6397 198.957 50.5874C199.015 50.6397 199.073 50.6922 199.13 50.7456ZM233.636 50.6577L233.628 50.4351C233.627 50.4275 233.626 50.4201 233.625 50.4126C233.632 50.4926 233.636 50.5742 233.636 50.6577ZM209.092 50.4253C209.085 50.4988 209.082 50.5736 209.082 50.6499C209.082 50.5736 209.086 50.4988 209.092 50.4253ZM181.417 50.5874C181.41 50.5971 181.403 50.6069 181.396 50.6167C181.403 50.6069 181.41 50.5971 181.417 50.5874ZM157.805 50.354C157.689 50.4404 157.575 50.5266 157.462 50.6147C157.575 50.5266 157.689 50.4405 157.805 50.354ZM213.802 50.5874C213.8 50.5373 213.799 50.4878 213.795 50.439C213.799 50.4878 213.8 50.5373 213.802 50.5874ZM198.872 50.5112C198.818 50.4634 198.762 50.4165 198.706 50.3696C198.762 50.4165 198.818 50.4635 198.872 50.5112ZM324.457 49.9624H324.458H324.457ZM181.611 50.3696C181.602 50.3791 181.592 50.3883 181.582 50.3979C181.592 50.3883 181.602 50.3791 181.611 50.3696ZM209.12 50.2114C209.111 50.2634 209.104 50.3161 209.099 50.3696C209.104 50.3161 209.111 50.2634 209.12 50.2114ZM233.62 50.3696C233.614 50.3036 233.605 50.2389 233.594 50.1753C233.605 50.2389 233.614 50.3036 233.62 50.3696ZM213.778 50.311C213.774 50.2815 213.77 50.2522 213.765 50.2231C213.77 50.2522 213.774 50.2815 213.778 50.311ZM198.109 49.9058C198.288 50.0342 198.46 50.1668 198.626 50.3032C198.373 50.0957 198.107 49.8967 197.826 49.7075L198.109 49.9058ZM209.17 49.9907C209.158 50.035 209.147 50.08 209.138 50.1255C209.147 50.08 209.158 50.035 209.17 49.9907ZM233.585 50.1255C233.573 50.0651 233.56 50.0059 233.544 49.9478C233.56 50.0059 233.573 50.0651 233.585 50.1255ZM213.74 50.1099C213.732 50.0747 213.724 50.0398 213.714 50.0054C213.724 50.0398 213.732 50.0747 213.74 50.1099ZM224.335 49.4585C224.387 49.5911 224.428 49.7291 224.455 49.8735C224.428 49.7291 224.387 49.5911 224.335 49.4585ZM209.231 49.8032C209.218 49.8377 209.207 49.8725 209.195 49.9077C209.207 49.8725 209.218 49.8377 209.231 49.8032ZM213.683 49.9077C213.669 49.8691 213.655 49.8311 213.64 49.7935C213.655 49.8311 213.669 49.8691 213.683 49.9077ZM233.529 49.8989C233.514 49.8482 233.498 49.7985 233.479 49.7495C233.498 49.7985 233.514 49.8482 233.529 49.8989ZM213.604 49.7124C213.586 49.6724 213.566 49.6332 213.545 49.5942C213.566 49.6332 213.586 49.6724 213.604 49.7124ZM209.332 49.5767C209.309 49.6207 209.287 49.6649 209.268 49.7104C209.287 49.6649 209.309 49.6208 209.332 49.5767ZM303.825 49.5718V49.5708V49.5718ZM233.449 49.6733C233.434 49.6359 233.417 49.5993 233.399 49.563C233.417 49.5993 233.434 49.6359 233.449 49.6733ZM183.25 49.5288C183.166 49.5604 183.083 49.5921 183 49.6245C183.083 49.5921 183.166 49.5604 183.25 49.5288ZM209.425 49.4126C209.401 49.4509 209.377 49.4893 209.355 49.5288C209.377 49.4893 209.401 49.4509 209.425 49.4126ZM213.504 49.521C213.479 49.4782 213.451 49.4364 213.423 49.395C213.451 49.4364 213.479 49.4782 213.504 49.521ZM217.739 49.1685C217.566 49.2768 217.397 49.3926 217.23 49.5161L217.486 49.3335C217.57 49.2765 217.654 49.2217 217.739 49.1685ZM233.355 49.4741C233.332 49.4312 233.307 49.3895 233.281 49.3481C233.307 49.3895 233.332 49.4312 233.355 49.4741ZM183.804 49.3276C183.671 49.3738 183.539 49.4212 183.409 49.4692C183.539 49.4212 183.671 49.3739 183.804 49.3276ZM213.385 49.3394C213.353 49.2963 213.319 49.2549 213.283 49.2134C213.319 49.2549 213.353 49.2963 213.385 49.3394ZM184.174 49.2026C184.049 49.2437 183.926 49.2851 183.804 49.3276C183.926 49.2851 184.049 49.2437 184.174 49.2026ZM169.109 49.0005C169.08 48.9848 169.05 48.9689 169.021 48.9536C169.05 48.9689 169.08 48.9848 169.109 49.0005ZM323.878 48.9976L323.727 48.8472C323.723 48.8439 323.719 48.8406 323.716 48.8374C323.771 48.8874 323.825 48.941 323.878 48.9976ZM213.074 48.9937C213.023 48.9385 212.97 48.8863 212.916 48.8374C212.97 48.8863 213.023 48.9385 213.074 48.9937ZM185.267 48.8696C185.131 48.9076 184.997 48.9462 184.864 48.9858C184.997 48.9462 185.131 48.9077 185.267 48.8696ZM218.261 48.8696C218.214 48.8937 218.169 48.9197 218.123 48.9448C218.169 48.9197 218.214 48.8937 218.261 48.8696ZM232.961 48.9448L232.809 48.8052C232.804 48.8014 232.799 48.7981 232.795 48.7944C232.852 48.8415 232.907 48.8914 232.961 48.9448ZM320.867 48.686C320.962 48.6168 321.062 48.5563 321.166 48.5044C321.062 48.5563 320.962 48.6168 320.867 48.686C320.824 48.7207 320.781 48.7565 320.74 48.7944H320.741C320.782 48.7567 320.824 48.7205 320.867 48.686ZM168.868 48.8784C168.825 48.8574 168.782 48.8362 168.738 48.8159C168.782 48.8362 168.825 48.8574 168.868 48.8784ZM218.517 48.7437C218.461 48.7697 218.406 48.7963 218.352 48.8237C218.406 48.7963 218.461 48.7697 218.517 48.7437ZM279.466 48.6353C279.323 48.6815 279.182 48.7304 279.043 48.7817C279.321 48.679 279.607 48.5866 279.901 48.5044L279.466 48.6353ZM323.64 48.7749C323.608 48.7482 323.576 48.7213 323.543 48.6968C323.576 48.7213 323.608 48.7482 323.64 48.7749ZM212.826 48.7632C212.801 48.7422 212.775 48.7213 212.749 48.7017C212.775 48.7213 212.801 48.7422 212.826 48.7632ZM168.609 48.7583C168.556 48.7348 168.503 48.7113 168.449 48.689C168.503 48.7113 168.556 48.7348 168.609 48.7583ZM232.744 48.7554C232.703 48.7231 232.661 48.6917 232.618 48.6626C232.661 48.6917 232.703 48.7231 232.744 48.7554ZM218.795 48.6196C218.75 48.6387 218.705 48.6592 218.66 48.6792C218.705 48.6592 218.75 48.6387 218.795 48.6196ZM323.471 48.647C323.434 48.6219 323.397 48.5973 323.359 48.5747C323.397 48.5973 323.434 48.6218 323.471 48.647ZM212.665 48.6421C212.631 48.6187 212.596 48.5959 212.561 48.5747C212.596 48.5959 212.631 48.6187 212.665 48.6421ZM168.315 48.6353C168.268 48.6167 168.221 48.5983 168.174 48.5806C168.221 48.5983 168.268 48.6167 168.315 48.6353ZM232.562 48.6265C232.519 48.5996 232.476 48.5741 232.432 48.5503C232.476 48.5741 232.519 48.5996 232.562 48.6265ZM219.071 48.5103C219.017 48.5306 218.963 48.5512 218.909 48.5728C218.963 48.5512 219.017 48.5306 219.071 48.5103ZM302.817 48.5601C302.788 48.543 302.759 48.5258 302.729 48.5103C302.759 48.5258 302.788 48.543 302.817 48.5601ZM212.479 48.5298C212.44 48.5086 212.401 48.4888 212.36 48.4702C212.401 48.4888 212.44 48.5086 212.479 48.5298ZM323.279 48.5298C323.241 48.5091 323.202 48.4894 323.163 48.4712C323.202 48.4894 323.241 48.5091 323.279 48.5298ZM168.016 48.5239C167.968 48.5074 167.921 48.4908 167.873 48.4751C167.921 48.4908 167.968 48.5074 168.016 48.5239ZM232.359 48.5132C232.321 48.4941 232.281 48.4763 232.241 48.4595C232.281 48.4763 232.321 48.4941 232.359 48.5132ZM302.694 48.4937C302.655 48.4742 302.615 48.4559 302.575 48.439C302.615 48.4559 302.655 48.4742 302.694 48.4937ZM219.343 48.4146C219.302 48.4281 219.261 48.4414 219.221 48.4556C219.261 48.4414 219.302 48.4281 219.343 48.4146ZM212.299 48.4419C212.252 48.4223 212.205 48.4054 212.157 48.3892C212.205 48.4053 212.252 48.4223 212.299 48.4419ZM323.095 48.4409C323.053 48.4235 323.011 48.4078 322.968 48.3931C323.011 48.4078 323.053 48.4234 323.095 48.4409ZM167.736 48.4321C167.685 48.4162 167.633 48.4003 167.581 48.3853C167.633 48.4003 167.685 48.4162 167.736 48.4321ZM232.16 48.4272C232.112 48.4093 232.063 48.3933 232.014 48.3784C232.063 48.3933 232.112 48.4093 232.16 48.4272ZM302.542 48.4253C302.506 48.4111 302.471 48.3975 302.435 48.3853C302.471 48.3975 302.506 48.4111 302.542 48.4253ZM219.651 48.3188C219.596 48.3345 219.542 48.3509 219.487 48.3677C219.542 48.3509 219.596 48.3345 219.651 48.3188ZM212.091 48.3667C212.037 48.3505 211.983 48.3368 211.928 48.3247C211.983 48.3367 212.037 48.3506 212.091 48.3667ZM302.373 48.3657C302.347 48.3577 302.32 48.3503 302.293 48.3433C302.32 48.3503 302.347 48.3577 302.373 48.3657ZM322.879 48.3638C322.846 48.3542 322.813 48.3465 322.78 48.3384C322.813 48.3465 322.846 48.3542 322.879 48.3638ZM231.956 48.3608C231.893 48.3436 231.828 48.3291 231.762 48.3169C231.828 48.3292 231.893 48.3436 231.956 48.3608ZM167.428 48.3423C167.378 48.3289 167.328 48.3158 167.278 48.3032C167.328 48.3158 167.378 48.3289 167.428 48.3423ZM302.209 48.3228C302.187 48.3179 302.164 48.3142 302.142 48.3101C302.164 48.3142 302.187 48.3179 302.209 48.3228ZM231.016 48.2798C231.092 48.2733 231.169 48.271 231.248 48.271C231.419 48.271 231.583 48.2845 231.739 48.312C231.662 48.2984 231.583 48.2876 231.502 48.2808L231.248 48.27C231.169 48.27 231.092 48.2733 231.016 48.2798ZM322.667 48.312C322.64 48.3069 322.612 48.3044 322.585 48.3003C322.612 48.3044 322.64 48.3069 322.667 48.312ZM302.053 48.2944C302.036 48.292 302.018 48.2906 302.001 48.2886C302.018 48.2906 302.036 48.292 302.053 48.2944ZM167.109 48.2622C167.054 48.2496 166.999 48.2387 166.943 48.2271C166.999 48.2387 167.054 48.2496 167.109 48.2622ZM188.12 48.2339C188.727 48.1447 189.358 48.0821 190.013 48.0464C189.358 48.0821 188.727 48.1446 188.12 48.2339ZM220.229 48.1782C220.176 48.189 220.123 48.2005 220.07 48.2124C220.123 48.2005 220.176 48.189 220.229 48.1782ZM166.821 48.2017C166.747 48.1871 166.673 48.1735 166.598 48.1606C166.673 48.1735 166.747 48.1872 166.821 48.2017ZM166.494 48.1431C166.429 48.1327 166.364 48.1239 166.299 48.1147C166.364 48.1239 166.429 48.1327 166.494 48.1431ZM282.26 48.0806H282.259H282.26ZM166.147 48.0933C166.092 48.0864 166.037 48.0807 165.981 48.0747C166.037 48.0807 166.092 48.0864 166.147 48.0933ZM221.619 48.0171C221.399 48.0249 221.183 48.0398 220.97 48.063C221.183 48.0397 221.399 48.0249 221.619 48.0171ZM165.129 48.0161C165.292 48.021 165.453 48.0299 165.612 48.0415C165.453 48.0299 165.292 48.021 165.129 48.0161ZM231.455 37.4302C232.235 37.4302 232.91 37.7111 233.466 38.2671C234.022 38.8231 234.303 39.4977 234.303 40.2778V40.4849C234.303 41.2649 234.022 41.9386 233.466 42.4946C232.91 43.0507 232.235 43.3315 231.455 43.3315H231.145C230.364 43.3315 229.69 43.0507 229.134 42.4946C228.578 41.9386 228.297 41.2649 228.297 40.4849V40.2778C228.297 39.4977 228.578 38.8231 229.134 38.2671C229.69 37.7111 230.364 37.4302 231.145 37.4302H231.455ZM118.416 43.146C118.485 43.1582 118.554 43.1691 118.626 43.1753C118.701 43.1818 118.777 43.1851 118.854 43.1851H129.442V43.1841H118.854C118.702 43.1841 118.556 43.1709 118.416 43.146ZM145.14 43.146C145 43.1708 144.854 43.1841 144.702 43.1841H134.166V43.1851H144.702L144.931 43.1753C145.002 43.1691 145.071 43.1581 145.14 43.146ZM118.212 43.0991C118.265 43.114 118.32 43.1263 118.375 43.1372C118.32 43.1263 118.265 43.114 118.212 43.0991ZM145.181 43.1372C145.236 43.1263 145.29 43.114 145.344 43.0991C145.29 43.114 145.236 43.1263 145.181 43.1372ZM230.632 43.0854C230.712 43.1004 230.793 43.1119 230.876 43.1196C230.793 43.1119 230.712 43.1004 230.632 43.0854ZM231.723 43.1196C231.802 43.1123 231.88 43.1005 231.957 43.0864C231.88 43.1005 231.802 43.1123 231.723 43.1196ZM118.036 43.0415C118.076 43.0566 118.117 43.0698 118.158 43.0825C118.117 43.0698 118.076 43.0566 118.036 43.0415ZM145.397 43.0825C145.439 43.0698 145.479 43.0566 145.52 43.0415C145.479 43.0566 145.439 43.0698 145.397 43.0825ZM232.025 43.0718C232.075 43.0613 232.124 43.05 232.173 43.0366C232.124 43.05 232.075 43.0613 232.025 43.0718ZM230.41 43.0327C230.451 43.0442 230.493 43.0535 230.534 43.063C230.493 43.0535 230.451 43.0442 230.41 43.0327ZM232.264 43.0103C232.306 42.9969 232.347 42.981 232.389 42.9653C232.347 42.981 232.306 42.9969 232.264 43.0103ZM117.846 42.9575C117.882 42.9759 117.919 42.9932 117.957 43.0093C117.919 42.9932 117.882 42.9759 117.846 42.9575ZM145.599 43.0093C145.636 42.9932 145.673 42.9759 145.71 42.9575C145.673 42.9758 145.636 42.9932 145.599 43.0093ZM230.178 42.9546C230.216 42.9695 230.254 42.9816 230.293 42.9946C230.254 42.9816 230.216 42.9695 230.178 42.9546ZM117.665 42.855C117.702 42.8785 117.739 42.9013 117.777 42.9224C117.739 42.9014 117.702 42.8785 117.665 42.855ZM145.778 42.9224C145.817 42.9014 145.854 42.8785 145.891 42.855C145.854 42.8785 145.817 42.9014 145.778 42.9224ZM232.523 42.9106C232.575 42.8875 232.626 42.8632 232.677 42.8364C232.626 42.8632 232.575 42.8875 232.523 42.9106ZM229.946 42.8481C229.988 42.87 230.031 42.8903 230.074 42.9097C230.031 42.8903 229.988 42.87 229.946 42.8481ZM117.502 42.7397C117.539 42.7688 117.577 42.7966 117.615 42.8228C117.577 42.7966 117.539 42.7688 117.502 42.7397ZM145.94 42.8228C145.979 42.7966 146.017 42.7688 146.054 42.7397C146.017 42.7688 145.979 42.7966 145.94 42.8228ZM229.722 42.7163C229.772 42.7496 229.824 42.7808 229.876 42.8101C229.824 42.7808 229.772 42.7496 229.722 42.7163ZM232.727 42.8081C232.778 42.7791 232.829 42.7483 232.879 42.7153C232.829 42.7483 232.778 42.7791 232.727 42.8081ZM117.298 42.562C117.345 42.6096 117.395 42.6537 117.445 42.6958C117.395 42.6536 117.346 42.6088 117.298 42.561C117.259 42.5223 117.224 42.4815 117.188 42.4409C117.224 42.4816 117.259 42.5232 117.298 42.562ZM146.554 42.231C146.469 42.3475 146.371 42.4574 146.259 42.561C146.211 42.6089 146.161 42.6534 146.11 42.6958C146.161 42.6535 146.211 42.6097 146.259 42.562C146.371 42.4583 146.469 42.3476 146.554 42.231ZM229.544 42.5884C229.584 42.6197 229.624 42.6506 229.665 42.6792C229.624 42.6506 229.584 42.6197 229.544 42.5884ZM232.938 42.6763C232.986 42.6425 233.033 42.6064 233.08 42.5688C233.033 42.6064 232.986 42.6425 232.938 42.6763ZM229.37 42.4409C229.398 42.467 229.426 42.4935 229.455 42.5181C229.426 42.4935 229.398 42.467 229.37 42.4409ZM233.38 42.2925C233.419 42.2507 233.459 42.2096 233.495 42.1665C233.459 42.2096 233.419 42.2507 233.38 42.2925ZM267.285 41.9312C267.223 42.0304 267.153 42.119 267.075 42.1968C267.153 42.119 267.223 42.0304 267.285 41.9312ZM233.581 42.0562C233.601 42.0305 233.62 42.0051 233.639 41.979C233.62 42.0051 233.601 42.0305 233.581 42.0562ZM233.714 41.8647C233.734 41.8331 233.753 41.8013 233.771 41.769C233.753 41.8013 233.734 41.8331 233.714 41.8647ZM233.825 41.6704C233.845 41.6318 233.863 41.5927 233.881 41.5532C233.863 41.5927 233.845 41.6318 233.825 41.6704ZM233.926 41.4468C233.939 41.412 233.951 41.3767 233.963 41.3413C233.951 41.3767 233.939 41.412 233.926 41.4468ZM234.002 41.2192C234.014 41.1771 234.023 41.1343 234.033 41.0913C234.023 41.1343 234.014 41.1771 234.002 41.2192ZM234.056 40.9956C234.07 40.916 234.082 40.8349 234.09 40.7524C234.082 40.835 234.07 40.9159 234.056 40.9956ZM267.645 40.7446C267.653 40.67 267.656 40.5966 267.657 40.5249C267.656 40.5967 267.653 40.6699 267.645 40.7446ZM267.654 40.4272C267.653 40.3914 267.652 40.3559 267.648 40.3208C267.652 40.3559 267.653 40.3914 267.654 40.4272ZM234.103 40.2778L234.093 40.0435C234.092 40.0369 234.09 40.0305 234.09 40.0239C234.097 40.1071 234.103 40.1918 234.103 40.2778ZM267.639 40.2466C267.633 40.2046 267.627 40.1634 267.618 40.1226C267.627 40.1634 267.633 40.2046 267.639 40.2466ZM267.6 40.0415C267.589 40.0021 267.577 39.9636 267.564 39.9253C267.577 39.9636 267.589 40.0021 267.6 40.0415ZM234.077 39.9165C234.071 39.8695 234.065 39.8229 234.057 39.7769C234.065 39.8229 234.071 39.8695 234.077 39.9165ZM267.54 39.8579C267.526 39.8208 267.509 39.7846 267.492 39.7485C267.509 39.7846 267.526 39.8208 267.54 39.8579ZM234.035 39.6763C234.025 39.6319 234.015 39.5879 234.003 39.5444C234.015 39.5879 234.025 39.6319 234.035 39.6763ZM267.457 39.6763C267.435 39.6357 267.411 39.5963 267.386 39.5571C267.411 39.5963 267.435 39.6357 267.457 39.6763ZM241.743 39.4126C241.694 39.4721 241.649 39.5335 241.606 39.5962C241.691 39.4709 241.789 39.3521 241.901 39.2397L241.743 39.4126ZM233.973 39.4458C233.958 39.4 233.941 39.3548 233.924 39.3101C233.941 39.3548 233.958 39.4 233.973 39.4458ZM263.831 39.2026C263.784 39.2486 263.74 39.2955 263.7 39.3433C263.74 39.2954 263.784 39.2487 263.831 39.2026ZM146.154 39.3433C146.14 39.33 146.127 39.316 146.113 39.3032C146.127 39.316 146.14 39.33 146.154 39.3433ZM155.108 39.2397C155.108 39.161 155.104 39.0839 155.098 39.0083C155.104 39.0839 155.108 39.1611 155.108 39.2397ZM146.038 39.2397C146.008 39.2144 145.977 39.1898 145.945 39.1665C145.977 39.1898 146.008 39.2144 146.038 39.2397ZM233.891 39.228C233.869 39.1793 233.846 39.1319 233.821 39.0845C233.846 39.1318 233.869 39.1794 233.891 39.228ZM245.187 39.2036C245.147 39.1623 245.107 39.1221 245.065 39.0845C245.107 39.1221 245.147 39.1623 245.187 39.2036ZM267.074 39.188L266.924 39.0483C266.919 39.044 266.913 39.04 266.908 39.0356C266.965 39.0831 267.02 39.1341 267.074 39.188ZM264.009 39.0483C263.957 39.089 263.909 39.1301 263.863 39.1724C263.909 39.1301 263.957 39.089 264.009 39.0483ZM145.873 39.1167C145.845 39.0978 145.817 39.0794 145.788 39.062C145.817 39.0794 145.845 39.0978 145.873 39.1167ZM264.206 38.9058C264.14 38.9491 264.078 38.9933 264.02 39.0386C264.078 38.9932 264.14 38.9491 264.206 38.9058ZM233.782 39.0093C233.755 38.9605 233.725 38.9131 233.694 38.8657C233.725 38.9131 233.755 38.9605 233.782 39.0093ZM244.976 39.0093C244.947 38.986 244.92 38.9625 244.891 38.9409C244.92 38.9625 244.947 38.986 244.976 39.0093ZM145.695 39.0093C145.666 38.9939 145.637 38.9792 145.607 38.9653C145.637 38.9792 145.666 38.9939 145.695 39.0093ZM266.861 38.9995C266.82 38.9668 266.779 38.9352 266.737 38.9058C266.779 38.9352 266.82 38.9668 266.861 38.9995ZM145.514 38.9243C145.479 38.9104 145.444 38.8982 145.409 38.8862C145.444 38.8982 145.479 38.9104 145.514 38.9243ZM150.425 38.7681C150.417 38.8162 150.411 38.865 150.405 38.9146C150.411 38.865 150.417 38.8162 150.425 38.7681ZM155.086 38.9058C155.08 38.8599 155.074 38.8147 155.066 38.77C155.074 38.8147 155.08 38.8599 155.086 38.9058ZM244.788 38.8706C244.763 38.8543 244.739 38.8379 244.714 38.8228C244.739 38.8379 244.763 38.8543 244.788 38.8706ZM145.34 38.8628C145.292 38.8485 145.244 38.8365 145.194 38.8257C145.244 38.8365 145.292 38.8485 145.34 38.8628ZM266.67 38.8618C266.634 38.8387 266.598 38.8162 266.562 38.7954C266.598 38.8163 266.634 38.8387 266.67 38.8618ZM145.135 38.812C145.096 38.8047 145.056 38.8007 145.017 38.7954C145.056 38.8007 145.096 38.8047 145.135 38.812ZM233.125 38.2261C233.193 38.2828 233.259 38.3439 233.324 38.4087C233.451 38.5354 233.561 38.669 233.657 38.8081C233.61 38.7402 233.561 38.6729 233.507 38.6079L233.324 38.4087C233.259 38.3439 233.193 38.2828 233.125 38.2261ZM244.627 38.7729C244.59 38.7528 244.552 38.7341 244.514 38.7163C244.552 38.7341 244.59 38.7528 244.627 38.7729ZM266.482 38.7524C266.451 38.7366 266.42 38.7218 266.389 38.7075C266.42 38.7218 266.452 38.7366 266.482 38.7524ZM150.474 38.5425C150.462 38.5874 150.452 38.633 150.442 38.6792C150.452 38.633 150.462 38.5874 150.474 38.5425ZM155.048 38.6792C155.039 38.6372 155.028 38.596 155.017 38.5552C155.028 38.596 155.039 38.6373 155.048 38.6792ZM244.43 38.6792C244.396 38.6654 244.362 38.6532 244.328 38.6411C244.362 38.6532 244.396 38.6654 244.43 38.6792ZM266.292 38.6655C266.259 38.6525 266.225 38.6408 266.191 38.6294C266.225 38.6408 266.259 38.6525 266.292 38.6655ZM244.223 38.606C244.191 38.5966 244.158 38.5885 244.126 38.5806C244.158 38.5885 244.191 38.5966 244.223 38.606ZM266.098 38.6001C266.062 38.59 266.026 38.5811 265.99 38.5728C266.026 38.5811 266.062 38.59 266.098 38.6001ZM244.013 38.5542C243.986 38.5491 243.958 38.5466 243.931 38.5425C243.958 38.5466 243.986 38.5491 244.013 38.5542ZM150.547 38.3169C150.528 38.3672 150.51 38.4181 150.494 38.4702C150.51 38.4181 150.528 38.3672 150.547 38.3169ZM154.987 38.4575C154.972 38.4125 154.956 38.3683 154.938 38.3247C154.956 38.3683 154.972 38.4125 154.987 38.4575ZM229.469 38.2319C229.412 38.2797 229.356 38.3308 229.302 38.3843C229.356 38.3308 229.412 38.2797 229.469 38.2319ZM154.913 38.2642C154.894 38.2206 154.873 38.1783 154.851 38.1362C154.873 38.1783 154.894 38.2207 154.913 38.2642ZM150.63 38.1274C150.608 38.1709 150.587 38.2143 150.568 38.2593C150.587 38.2143 150.608 38.1709 150.63 38.1274ZM229.666 38.0825C229.61 38.1212 229.556 38.1619 229.502 38.2056C229.556 38.162 229.61 38.1212 229.666 38.0825ZM154.809 38.0571C154.78 38.0083 154.749 37.9614 154.717 37.9146C154.749 37.9613 154.78 38.0083 154.809 38.0571ZM150.746 37.9204C150.718 37.965 150.69 38.0097 150.665 38.0562C150.69 38.0098 150.718 37.965 150.746 37.9204ZM229.879 37.9487C229.825 37.9786 229.773 38.0114 229.722 38.0454C229.773 38.0114 229.825 37.9786 229.879 37.9487ZM230.1 37.8403C230.043 37.8649 229.987 37.8915 229.933 37.9204C229.987 37.8915 230.043 37.8649 230.1 37.8403ZM150.902 37.7007C150.855 37.759 150.811 37.8195 150.77 37.8813C150.811 37.8195 150.855 37.759 150.902 37.7007ZM230.311 37.7612C230.261 37.7777 230.211 37.7944 230.162 37.814C230.211 37.7944 230.261 37.7776 230.311 37.7612ZM230.56 37.6929C230.505 37.7047 230.451 37.7167 230.398 37.7319C230.451 37.7167 230.505 37.7046 230.56 37.6929ZM230.876 37.6421C230.793 37.6498 230.711 37.6622 230.631 37.6772C230.711 37.6622 230.793 37.6498 230.876 37.6421ZM154.382 37.5269C154.33 37.4749 154.276 37.4263 154.222 37.3804C154.276 37.4263 154.33 37.4749 154.382 37.5269ZM154.152 37.3267C154.117 37.299 154.082 37.2718 154.045 37.2466C154.082 37.2718 154.117 37.299 154.152 37.3267ZM153.976 37.2017C153.939 37.1785 153.903 37.1561 153.865 37.1353C153.903 37.1561 153.939 37.1785 153.976 37.2017ZM153.787 37.0942C153.75 37.0756 153.713 37.058 153.675 37.0415C153.713 37.058 153.75 37.0756 153.787 37.0942ZM153.592 37.0073C153.555 36.993 153.517 36.9806 153.479 36.9683C153.517 36.9806 153.555 36.993 153.592 37.0073ZM153.384 36.939C153.348 36.9292 153.312 36.9207 153.275 36.9126C153.312 36.9207 153.348 36.9292 153.384 36.939Z" fill="black"/>
<g filter="url(#filter0_in_101_543)">
<rect x="29" y="20" width="73" height="73" rx="14.7848" fill="url(#paint0_linear_101_543)"/>
</g>
<g filter="url(#filter1_in_101_543)">
<rect x="29" y="20" width="73" height="73" rx="14.7848" fill="url(#paint1_radial_101_543)"/>
</g>
<g filter="url(#filter2_if_101_543)">
<rect x="36.7004" y="27.7004" width="57.9072" height="57.9072" rx="28.9536" fill="url(#paint2_linear_101_543)"/>
</g>
<g filter="url(#filter3_f_101_543)">
<path d="M65.6543 27.5469C81.7299 27.5469 94.7617 40.5787 94.7617 56.6543C94.7617 72.7299 81.7299 85.7617 65.6543 85.7617C49.5787 85.7617 36.5469 72.7299 36.5469 56.6543C36.5469 40.5786 49.5786 27.5469 65.6543 27.5469Z" stroke="url(#paint3_linear_101_543)" stroke-width="0.308017"/>
</g>
<g clip-path="url(#clip0_101_543)">
<path d="M68.023 37.6991C66.1092 43.3199 61.7648 47.5123 56.0642 49.1868C54.9358 49.5306 53.7429 48.8952 53.3981 47.7678C52.9992 46.5074 53.892 45.1559 55.2046 45.022C57.884 44.7247 60.3762 43.1547 62.0118 41.0338C62.9692 39.7459 63.6901 38.2177 63.9114 36.6306C64.0804 35.4633 65.1651 34.654 66.3324 34.8231C67.6716 35.0007 68.514 36.4454 68.022 37.6991H68.023Z" fill="white"/>
<path d="M55.5076 45.0999C55.6996 45.1109 55.8818 45.1497 56.0593 45.2083H56.0613C58.0892 45.8203 60.0127 46.6982 61.739 47.9006L62.0818 48.1458C63.9016 49.4675 65.4338 51.1122 66.7322 52.9612L66.7332 52.9622C67.4486 53.9016 67.2468 55.2578 66.28 55.9387H66.2791C65.2178 56.7125 63.658 56.2594 63.155 55.0627L63.1277 54.9934C62.2349 52.7614 60.3559 50.9721 58.1687 50.0042L57.7273 49.8215L57.4265 49.7131C56.7219 49.4721 55.9909 49.3131 55.2517 49.2678H55.2527C52.4972 48.9897 52.7347 45.0424 55.5076 45.0999Z" fill="url(#paint4_linear_101_543)" stroke="white" stroke-width="0.1101"/>
<path d="M63.0767 55.0139C62.1307 52.6489 60.0687 50.7816 57.7075 49.8726C56.9154 49.5725 56.0862 49.374 55.2476 49.3227C52.421 49.0378 52.6651 44.9841 55.5106 45.0449C55.7082 45.0563 55.8953 45.0962 56.0767 45.156C58.2451 45.8104 60.2957 46.7678 62.1145 48.1013C63.94 49.4272 65.4758 51.076 66.7771 52.9291C67.5112 53.8931 67.3042 55.2846 66.3117 55.9836C65.2004 56.7938 63.5582 56.2951 63.0748 55.0129L63.0767 55.0139Z" fill="url(#paint5_linear_101_543)"/>
<path d="M68.1305 36.6307C68.5617 39.6491 70.5961 42.3598 73.2527 43.8177C74.1426 44.305 75.1019 44.6602 76.0888 44.8302C78.8593 45.421 78.1774 49.4129 75.3612 49.0425C75.1988 49.015 75.0449 48.9684 74.8968 48.9077C72.3665 47.9408 70.0566 46.4838 68.1827 44.5415C66.3012 42.6058 64.9154 40.256 64.0188 37.7001C63.5829 36.5784 64.1604 35.3095 65.2963 34.9087C66.5519 34.4462 67.9605 35.3076 68.1295 36.6316L68.1305 36.6307Z" fill="white"/>
<path d="M69.8872 57.0095C73.3312 57.0095 76.1226 59.801 76.1226 63.2449C76.1226 66.6888 73.3312 69.4803 69.8872 69.4803C66.4433 69.4803 63.6519 66.6888 63.6519 63.2449" stroke="white" stroke-width="3.68044" stroke-miterlimit="10"/>
<mask id="path-13-inside-1_101_543" fill="white">
<path d="M57.4817 59.111C61.0282 54.3128 67.8197 52.6605 73.0539 55.6549C73.4866 55.9052 73.9075 56.1824 74.3059 56.486C76.5078 57.9282 77.9631 60.4158 77.9631 63.2448C77.963 67.7048 74.3479 71.3207 69.8879 71.3209V67.6403C72.3153 67.64 74.2824 65.6722 74.2824 63.2448C74.2824 60.8173 72.3153 58.8495 69.8879 58.8492C67.4603 58.8492 65.4925 60.8172 65.4924 63.2448H61.8117C61.8118 62.065 62.0671 60.9454 62.5217 59.9352C61.3872 60.6895 60.4235 61.7092 59.7473 62.9821C58.7111 64.9443 58.5281 67.3296 59.2053 69.4401C59.7049 71.0128 60.6786 72.4316 61.9797 73.4459C62.9057 74.1668 63.0726 75.5023 62.3518 76.4283C61.6014 77.4019 60.1572 77.5271 59.2492 76.6998H59.2502C54.1243 72.2206 53.3501 64.5219 57.4817 59.111Z"/>
</mask>
<path d="M57.4817 59.111C61.0282 54.3128 67.8197 52.6605 73.0539 55.6549C73.4866 55.9052 73.9075 56.1824 74.3059 56.486C76.5078 57.9282 77.9631 60.4158 77.9631 63.2448C77.963 67.7048 74.3479 71.3207 69.8879 71.3209V67.6403C72.3153 67.64 74.2824 65.6722 74.2824 63.2448C74.2824 60.8173 72.3153 58.8495 69.8879 58.8492C67.4603 58.8492 65.4925 60.8172 65.4924 63.2448H61.8117C61.8118 62.065 62.0671 60.9454 62.5217 59.9352C61.3872 60.6895 60.4235 61.7092 59.7473 62.9821C58.7111 64.9443 58.5281 67.3296 59.2053 69.4401C59.7049 71.0128 60.6786 72.4316 61.9797 73.4459C62.9057 74.1668 63.0726 75.5023 62.3518 76.4283C61.6014 77.4019 60.1572 77.5271 59.2492 76.6998H59.2502C54.1243 72.2206 53.3501 64.5219 57.4817 59.111Z" fill="url(#paint6_linear_101_543)"/>
<path d="M57.4817 59.111L57.5692 59.1778L57.5702 59.1764L57.4817 59.111ZM73.0539 55.6549L73.1091 55.5596L73.1086 55.5593L73.0539 55.6549ZM74.3059 56.486L74.239 56.5738L74.2456 56.5781L74.3059 56.486ZM77.9631 63.2448L78.0732 63.2448V63.2448L77.9631 63.2448ZM69.8879 71.3209H69.7778V71.431L69.8879 71.431L69.8879 71.3209ZM69.8879 67.6403L69.8879 67.5302L69.7778 67.5302V67.6403H69.8879ZM74.2824 63.2448L74.3925 63.2448V63.2447L74.2824 63.2448ZM69.8879 58.8492L69.8879 58.7391H69.8879V58.8492ZM65.4924 63.2448V63.3549H65.6025L65.6025 63.2448L65.4924 63.2448ZM61.8117 63.2448L61.7016 63.2448L61.7016 63.3549H61.8117V63.2448ZM62.5217 59.9352L62.6221 59.9804L62.7789 59.632L62.4607 59.8435L62.5217 59.9352ZM59.7473 62.9821L59.6501 62.9304L59.6499 62.9306L59.7473 62.9821ZM59.2053 69.4401L59.3102 69.4067L59.3101 69.4064L59.2053 69.4401ZM61.9797 73.4459L61.912 73.5328L61.9121 73.5328L61.9797 73.4459ZM62.3518 76.4283L62.2649 76.3607L62.2646 76.3611L62.3518 76.4283ZM59.2492 76.6998V76.5897H58.9649L59.1751 76.7812L59.2492 76.6998ZM59.2502 76.6998V76.8099H59.5435L59.3227 76.6169L59.2502 76.6998ZM57.4817 59.111L57.5702 59.1764C61.0855 54.4204 67.8164 52.7854 72.9993 55.7505L73.0539 55.6549L73.1086 55.5593C67.823 52.5355 60.9708 54.2052 57.3931 59.0455L57.4817 59.111ZM73.0539 55.6549L72.9988 55.7502C73.4278 55.9984 73.8448 56.273 74.2391 56.5735L74.3059 56.486L74.3726 56.3984C73.9702 56.0917 73.5454 55.812 73.1091 55.5596L73.0539 55.6549ZM74.3059 56.486L74.2456 56.5781C76.4178 58.0009 77.853 60.4546 77.853 63.2448L77.9631 63.2448L78.0732 63.2448C78.0732 60.3771 76.5979 57.8556 74.3662 56.3939L74.3059 56.486ZM77.9631 63.2448L77.853 63.2448C77.8529 67.644 74.2871 71.2106 69.8879 71.2108L69.8879 71.3209L69.8879 71.431C74.4088 71.4308 78.0731 67.7656 78.0732 63.2448L77.9631 63.2448ZM69.8879 71.3209H69.998V67.6403H69.8879H69.7778V71.3209H69.8879ZM69.8879 67.6403L69.8879 67.7504C72.3761 67.7501 74.3925 65.733 74.3925 63.2448L74.2824 63.2448L74.1723 63.2447C74.1723 65.6114 72.2545 67.53 69.8879 67.5302L69.8879 67.6403ZM74.2824 63.2448L74.3925 63.2447C74.3925 60.7566 72.3761 58.7394 69.8879 58.7391L69.8879 58.8492L69.8879 58.9593C72.2545 58.9596 74.1723 60.8781 74.1723 63.2448L74.2824 63.2448ZM69.8879 58.8492V58.7391C67.3995 58.7391 65.3824 60.7564 65.3823 63.2447L65.4924 63.2448L65.6025 63.2448C65.6026 60.878 67.5212 58.9593 69.8879 58.9593V58.8492ZM65.4924 63.2448V63.1347H61.8117V63.2448V63.3549H65.4924V63.2448ZM61.8117 63.2448L61.9218 63.2448C61.9219 62.0811 62.1737 60.9768 62.6221 59.9804L62.5217 59.9352L62.4213 59.89C61.9605 60.914 61.7017 62.049 61.7016 63.2448L61.8117 63.2448ZM62.5217 59.9352L62.4607 59.8435C61.3119 60.6073 60.3353 61.6404 59.6501 62.9304L59.7473 62.9821L59.8445 63.0337C60.5116 61.7779 61.4624 60.7717 62.5827 60.0269L62.5217 59.9352ZM59.7473 62.9821L59.6499 62.9306C58.5995 64.9199 58.4145 67.336 59.1005 69.4737L59.2053 69.4401L59.3101 69.4064C58.6417 67.3233 58.8227 64.9687 59.8446 63.0335L59.7473 62.9821ZM59.2053 69.4401L59.1004 69.4734C59.6065 71.0668 60.593 72.5044 61.912 73.5328L61.9797 73.4459L62.0474 73.3591C60.7642 72.3587 59.8032 70.9588 59.3102 69.4067L59.2053 69.4401ZM61.9797 73.4459L61.9121 73.5328C62.7902 74.2164 62.9484 75.4827 62.2649 76.3607L62.3518 76.4283L62.4387 76.496C63.1969 75.5219 63.0213 74.1172 62.0473 73.359L61.9797 73.4459ZM62.3518 76.4283L62.2646 76.3611C61.5536 77.2836 60.1839 77.4024 59.3234 76.6184L59.2492 76.6998L59.1751 76.7812C60.1306 77.6518 61.6493 77.5202 62.439 76.4956L62.3518 76.4283ZM59.2492 76.6998V76.8099H59.2502V76.6998V76.5897H59.2492V76.6998ZM59.2502 76.6998L59.3227 76.6169C54.2404 72.1759 53.4728 64.5426 57.5692 59.1778L57.4817 59.111L57.3942 59.0441C53.2274 64.5011 54.0082 72.2654 59.1778 76.7827L59.2502 76.6998Z" fill="white" mask="url(#path-13-inside-1_101_543)"/>
<path d="M63.6399 63.1014C63.6399 55.5183 68.82 49.1471 75.7991 47.2428C75.8808 47.22 75.9634 47.1991 76.046 47.1772" stroke="white" stroke-width="3.70418" stroke-miterlimit="10" stroke-linecap="round"/>
</g>
<defs>
<filter id="filter0_in_101_543" x="29" y="18.4599" width="73" height="74.5401" filterUnits="userSpaceOnUse" color-interpolation-filters="sRGB">
<feFlood flood-opacity="0" result="BackgroundImageFix"/>
<feBlend mode="normal" in="SourceGraphic" in2="BackgroundImageFix" result="shape"/>
<feColorMatrix in="SourceAlpha" type="matrix" values="0 0 0 0 0 0 0 0 0 0 0 0 0 0 0 0 0 0 127 0" result="hardAlpha"/>
<feMorphology radius="0.308017" operator="dilate" in="SourceAlpha" result="effect1_innerShadow_101_543"/>
<feOffset dy="-1.54008"/>
<feGaussianBlur stdDeviation="2.51034"/>
<feComposite in2="hardAlpha" operator="arithmetic" k2="-1" k3="1"/>
<feColorMatrix type="matrix" values="0 0 0 0 0.401348 0 0 0 0 0.09076 0 0 0 0 0.0497389 0 0 0 0.45 0"/>
<feBlend mode="normal" in2="shape" result="effect1_innerShadow_101_543"/>
<feTurbulence type="fractalNoise" baseFrequency="10.821917533874512 10.821917533874512" stitchTiles="stitch" numOctaves="3" result="noise" seed="297" />
<feColorMatrix in="noise" type="luminanceToAlpha" result="alphaNoise" />
<feComponentTransfer in="alphaNoise" result="coloredNoise1">
<feFuncA type="discrete" tableValues="0 0 1 1 1 1 1 1 1 1 1 1 1 1 1 1 1 1 1 1 1 1 1 1 1 1 1 1 1 1 1 1 1 1 1 1 1 1 1 1 1 1 1 1 1 1 1 0 0 0 0 0 0 0 0 0 0 0 0 0 0 0 0 0 0 0 0 0 0 0 0 0 0 0 0 0 0 0 0 0 0 0 0 0 0 0 0 0 0 0 0 0 0 0 0 0 0 0 0 0 "/>
</feComponentTransfer>
<feComposite operator="in" in2="effect1_innerShadow_101_543" in="coloredNoise1" result="noise1Clipped" />
<feFlood flood-color="rgba(133, 0, 0, 0.5)" result="color1Flood" />
<feComposite operator="in" in2="noise1Clipped" in="color1Flood" result="color1" />
<feMerge result="effect2_noise_101_543">
<feMergeNode in="effect1_innerShadow_101_543" />
<feMergeNode in="color1" />
</feMerge>
</filter>
<filter id="filter1_in_101_543" x="29" y="18.4599" width="73" height="74.5401" filterUnits="userSpaceOnUse" color-interpolation-filters="sRGB">
<feFlood flood-opacity="0" result="BackgroundImageFix"/>
<feBlend mode="normal" in="SourceGraphic" in2="BackgroundImageFix" result="shape"/>
<feColorMatrix in="SourceAlpha" type="matrix" values="0 0 0 0 0 0 0 0 0 0 0 0 0 0 0 0 0 0 127 0" result="hardAlpha"/>
<feMorphology radius="0.308017" operator="dilate" in="SourceAlpha" result="effect1_innerShadow_101_543"/>
<feOffset dy="-1.54008"/>
<feGaussianBlur stdDeviation="2.51034"/>
<feComposite in2="hardAlpha" operator="arithmetic" k2="-1" k3="1"/>
<feColorMatrix type="matrix" values="0 0 0 0 0.401348 0 0 0 0 0.09076 0 0 0 0 0.0497389 0 0 0 0.45 0"/>
<feBlend mode="normal" in2="shape" result="effect1_innerShadow_101_543"/>
<feTurbulence type="fractalNoise" baseFrequency="10.821917533874512 10.821917533874512" stitchTiles="stitch" numOctaves="3" result="noise" seed="297" />
<feColorMatrix in="noise" type="luminanceToAlpha" result="alphaNoise" />
<feComponentTransfer in="alphaNoise" result="coloredNoise1">
<feFuncA type="discrete" tableValues="0 0 1 1 1 1 1 1 1 1 1 1 1 1 1 1 1 1 1 1 1 1 1 1 1 1 1 1 1 1 1 1 1 1 1 1 1 1 1 1 1 1 1 1 1 1 1 0 0 0 0 0 0 0 0 0 0 0 0 0 0 0 0 0 0 0 0 0 0 0 0 0 0 0 0 0 0 0 0 0 0 0 0 0 0 0 0 0 0 0 0 0 0 0 0 0 0 0 0 0 "/>
</feComponentTransfer>
<feComposite operator="in" in2="effect1_innerShadow_101_543" in="coloredNoise1" result="noise1Clipped" />
<feFlood flood-color="rgba(133, 0, 0, 0.5)" result="color1Flood" />
<feComposite operator="in" in2="noise1Clipped" in="color1Flood" result="color1" />
<feMerge result="effect2_noise_101_543">
<feMergeNode in="effect1_innerShadow_101_543" />
<feMergeNode in="color1" />
</feMerge>
</filter>
<filter id="filter2_if_101_543" x="36.2076" y="27.2076" width="59.0161" height="58.8929" filterUnits="userSpaceOnUse" color-interpolation-filters="sRGB">
<feFlood flood-opacity="0" result="BackgroundImageFix"/>
<feBlend mode="normal" in="SourceGraphic" in2="BackgroundImageFix" result="shape"/>
<feColorMatrix in="SourceAlpha" type="matrix" values="0 0 0 0 0 0 0 0 0 0 0 0 0 0 0 0 0 0 127 0" result="hardAlpha"/>
<feMorphology radius="2.77215" operator="dilate" in="SourceAlpha" result="effect1_innerShadow_101_543"/>
<feOffset dx="0.616034"/>
<feGaussianBlur stdDeviation="2.55654"/>
<feComposite in2="hardAlpha" operator="arithmetic" k2="-1" k3="1"/>
<feColorMatrix type="matrix" values="0 0 0 0 1 0 0 0 0 1 0 0 0 0 1 0 0 0 0.25 0"/>
<feBlend mode="normal" in2="shape" result="effect1_innerShadow_101_543"/>
<feGaussianBlur stdDeviation="0.246413" result="effect2_foregroundBlur_101_543"/>
</filter>
<filter id="filter3_f_101_543" x="35.8998" y="26.8998" width="59.5088" height="59.5088" filterUnits="userSpaceOnUse" color-interpolation-filters="sRGB">
<feFlood flood-opacity="0" result="BackgroundImageFix"/>
<feBlend mode="normal" in="SourceGraphic" in2="BackgroundImageFix" result="shape"/>
<feGaussianBlur stdDeviation="0.246413" result="effect1_foregroundBlur_101_543"/>
</filter>
<linearGradient id="paint0_linear_101_543" x1="33.9283" y1="25.2363" x2="97.2257" y2="88.6878" gradientUnits="userSpaceOnUse">
<stop stop-color="#FF5144"/>
<stop offset="1" stop-color="#892018"/>
</linearGradient>
<radialGradient id="paint1_radial_101_543" cx="0" cy="0" r="1" gradientUnits="userSpaceOnUse" gradientTransform="translate(91.6814 28.1624) rotate(134.33) scale(37.2465)">
<stop stop-color="#FF6969"/>
<stop offset="1" stop-color="#FF3627" stop-opacity="0"/>
</radialGradient>
<linearGradient id="paint2_linear_101_543" x1="83.981" y1="33.8608" x2="44.4009" y2="77.9072" gradientUnits="userSpaceOnUse">
<stop stop-color="#FF5144"/>
<stop offset="1" stop-color="#99251C"/>
</linearGradient>
<linearGradient id="paint3_linear_101_543" x1="94.9158" y1="76.9258" x2="74.1154" y2="64.234" gradientUnits="userSpaceOnUse">
<stop stop-color="white" stop-opacity="0.85"/>
<stop offset="1" stop-color="#941C13"/>
</linearGradient>
<linearGradient id="paint4_linear_101_543" x1="61.8306" y1="49.7235" x2="64.6617" y2="54.9139" gradientUnits="userSpaceOnUse">
<stop stop-color="white"/>
<stop offset="1" stop-color="#EC6D6D"/>
</linearGradient>
<linearGradient id="paint5_linear_101_543" x1="61.8306" y1="49.7235" x2="64.6617" y2="54.9139" gradientUnits="userSpaceOnUse">
<stop stop-color="white" stop-opacity="0"/>
<stop offset="0.947115" stop-color="#CB3C31"/>
</linearGradient>
<linearGradient id="paint6_linear_101_543" x1="60.3067" y1="58.8559" x2="68.6426" y2="57.9122" gradientUnits="userSpaceOnUse">
<stop stop-color="white"/>
<stop offset="0.466346" stop-color="#FB8080"/>
<stop offset="1" stop-color="white"/>
</linearGradient>
<clipPath id="clip0_101_543">
<rect width="24.7145" height="42.467" fill="white" transform="translate(53.248 34.7812)"/>
</clipPath>
</defs>
</svg>
